<svg id="图层_1" data-name="图层 1" xmlns="http://www.w3.org/2000/svg" viewBox="0 0 963.12 451.85"><defs><style>.cls-1{fill:#231815;}.cls-2{fill:#fff;}.cls-3{fill:#22ac38;}.cls-4,.cls-5{fill:#e61673;}.cls-5{stroke:#00a0e9;}.cls-11,.cls-5{stroke-miterlimit:10;}.cls-6{fill:#5a819e;}.cls-7{fill:#8fc31f;}.cls-8{fill:#898989;}.cls-9{fill:#cb318c;}.cls-10{fill:#f39800;}.cls-11{fill:none;stroke:#e83828;stroke-width:1.6px;}</style></defs><path class="cls-1" d="M285.05,192.46l6.5-8,0-.11h-6.12v-2.49h9.69v2.49l-6.57,8.08v.11h7.07v2.51H285.05Z" transform="translate(-20.48 -180.47)"/><path class="cls-1" d="M299.09,183.36a4.13,4.13,0,0,1-.76-.05.88.88,0,0,1-.47-.19.79.79,0,0,1-.24-.44,3.85,3.85,0,0,1-.07-.78,3.7,3.7,0,0,1,.07-.76.76.76,0,0,1,.24-.44.88.88,0,0,1,.47-.19,7.59,7.59,0,0,1,.76,0,7.31,7.31,0,0,1,.77,0,.92.92,0,0,1,.47.19.81.81,0,0,1,.23.44,3.11,3.11,0,0,1,.07.76,3.24,3.24,0,0,1-.07.78.85.85,0,0,1-.23.44.92.92,0,0,1-.47.19A4.05,4.05,0,0,1,299.09,183.36Zm-1.38,1.43h2.75v10.26h-2.75Z" transform="translate(-20.48 -180.47)"/><path class="cls-1" d="M306.16,187v4.58a4.76,4.76,0,0,0,0,.74.93.93,0,0,0,.18.45.75.75,0,0,0,.36.23,2.38,2.38,0,0,0,.59.06,3.79,3.79,0,0,0,.82-.07v2.13l-.65.06-.68,0a7.34,7.34,0,0,1-1.61-.15,2,2,0,0,1-1.63-1.58,6.08,6.08,0,0,1-.18-1.67V187h-1.35v-2.16h1.35v-2.43h2.75v2.43h2.13V187Z" transform="translate(-20.48 -180.47)"/><path class="cls-1" d="M314.29,184.62a9.63,9.63,0,0,1,2.18.21,3.82,3.82,0,0,1,1.42.64,2.41,2.41,0,0,1,.78,1,3.93,3.93,0,0,1,.24,1.43v7.11h-2.47l-.27-1.2a2.52,2.52,0,0,1-1.16,1,4.81,4.81,0,0,1-2.11.41,3.94,3.94,0,0,1-2.62-.77,3,3,0,0,1-.89-2.37,2.83,2.83,0,0,1,1.07-2.51,5.69,5.69,0,0,1,3.15-.72h2.54v-.26a2.92,2.92,0,0,0-.08-.78,1,1,0,0,0-.33-.53,1.66,1.66,0,0,0-.67-.29,5.46,5.46,0,0,0-1.1-.09c-.37,0-.74,0-1.1,0a9.85,9.85,0,0,0-1.09.15v-2.34c.4-.05.82-.09,1.28-.12Zm-.68,8.51a3.58,3.58,0,0,0,1.61-.33,1.93,1.93,0,0,0,.93-.87v-1.2H314a3.31,3.31,0,0,0-1.48.25,1.09,1.09,0,0,0-.44,1,1,1,0,0,0,.35.86A2,2,0,0,0,313.61,193.13Z" transform="translate(-20.48 -180.47)"/><path class="cls-1" d="M326.24,195.24a8.53,8.53,0,0,1-2.13-.25,3.51,3.51,0,0,1-1.58-.85,3.91,3.91,0,0,1-1-1.64,8.19,8.19,0,0,1-.34-2.58,8.3,8.3,0,0,1,.34-2.59,3.87,3.87,0,0,1,1-1.63,3.52,3.52,0,0,1,1.58-.86,9.57,9.57,0,0,1,4.26,0,3.59,3.59,0,0,1,1.57.86,4,4,0,0,1,1,1.63,8.6,8.6,0,0,1,.34,2.59,8.49,8.49,0,0,1-.34,2.58,4,4,0,0,1-1,1.64,3.58,3.58,0,0,1-1.57.85A8.53,8.53,0,0,1,326.24,195.24Zm0-2.09a3.26,3.26,0,0,0,1.06-.15,1.42,1.42,0,0,0,.68-.53,2.44,2.44,0,0,0,.36-1,9.65,9.65,0,0,0,.11-1.56,8.52,8.52,0,0,0-.12-1.56,2.6,2.6,0,0,0-.37-1,1.42,1.42,0,0,0-.67-.54,3.53,3.53,0,0,0-2.1,0,1.42,1.42,0,0,0-.69.54,2.6,2.6,0,0,0-.36,1,9.78,9.78,0,0,0-.1,1.56,9.65,9.65,0,0,0,.11,1.56,2.6,2.6,0,0,0,.37,1,1.42,1.42,0,0,0,.68.53A3.09,3.09,0,0,0,326.24,193.15Z" transform="translate(-20.48 -180.47)"/><path class="cls-1" d="M341.33,184.39h-3.46v10.66H335V184.39h-3.46v-2.53h9.79Z" transform="translate(-20.48 -180.47)"/><path class="cls-1" d="M351.08,189.1c0,.29,0,.57,0,.83a5,5,0,0,1-.07.6l-6.61.41a2.11,2.11,0,0,0,.74,1.62,3.31,3.31,0,0,0,2,.51,6.42,6.42,0,0,0,1-.07,9,9,0,0,0,.95-.16,8.05,8.05,0,0,0,.85-.22,3.94,3.94,0,0,0,.63-.27v2.17a4.26,4.26,0,0,1-.61.26,5.73,5.73,0,0,1-.91.23c-.34.06-.72.12-1.13.16a10.63,10.63,0,0,1-1.28.07,8.42,8.42,0,0,1-2.11-.25,3.58,3.58,0,0,1-1.57-.85,3.89,3.89,0,0,1-1-1.64,8.16,8.16,0,0,1-.35-2.58,8.27,8.27,0,0,1,.35-2.59,3.77,3.77,0,0,1,1-1.63,3.65,3.65,0,0,1,1.6-.86,8.78,8.78,0,0,1,2.15-.24,6.14,6.14,0,0,1,2.18.33,3.2,3.2,0,0,1,1.35.93,3.4,3.4,0,0,1,.68,1.43A8.47,8.47,0,0,1,351.08,189.1Zm-2.51-.4a4.94,4.94,0,0,0-.07-.79,1.41,1.41,0,0,0-.27-.64,1.31,1.31,0,0,0-.56-.44,2.48,2.48,0,0,0-1-.16,3.68,3.68,0,0,0-1.08.14,1.73,1.73,0,0,0-.69.43,1.77,1.77,0,0,0-.4.73,4,4,0,0,0-.15,1.05Z" transform="translate(-20.48 -180.47)"/><path class="cls-1" d="M357.82,195.24a8.67,8.67,0,0,1-2.14-.25,3.65,3.65,0,0,1-1.59-.85,3.83,3.83,0,0,1-1-1.64,8.19,8.19,0,0,1-.34-2.58,8.3,8.3,0,0,1,.34-2.59,3.8,3.8,0,0,1,1-1.63,3.67,3.67,0,0,1,1.59-.86,8.7,8.7,0,0,1,2.14-.24,13.68,13.68,0,0,1,1.46.08,7,7,0,0,1,1.18.24v2.32a6.49,6.49,0,0,0-2.28-.38A4.55,4.55,0,0,0,357,187a1.67,1.67,0,0,0-.8.49,2.23,2.23,0,0,0-.47.95,7.38,7.38,0,0,0,0,3,2.05,2.05,0,0,0,.48.93,1.69,1.69,0,0,0,.82.48,4.3,4.3,0,0,0,1.21.15,7.85,7.85,0,0,0,1.19-.09,5.69,5.69,0,0,0,1.13-.29v2.26a3.29,3.29,0,0,1-.55.16c-.2,0-.43.09-.68.12s-.5.07-.76.09Z" transform="translate(-20.48 -180.47)"/><path class="cls-1" d="M368.73,184.6a5,5,0,0,1,1.6.22,2.41,2.41,0,0,1,1.06.65,2.69,2.69,0,0,1,.57,1.07,6.07,6.07,0,0,1,.17,1.5v7h-2.76v-6.29a2.42,2.42,0,0,0-.34-1.48,1.63,1.63,0,0,0-1.33-.44,2.83,2.83,0,0,0-1.41.32,1.83,1.83,0,0,0-.77,1.16v6.73h-2.76V180.61h2.76V186a2.54,2.54,0,0,1,1.24-1.08A4.92,4.92,0,0,1,368.73,184.6Z" transform="translate(-20.48 -180.47)"/><path class="cls-1" d="M374.71,188.11h5.83v2.21h-5.83Z" transform="translate(-20.48 -180.47)"/><path class="cls-1" d="M386.7,195.24a15.52,15.52,0,0,1-2.2-.15,14.14,14.14,0,0,1-1.64-.33v-2.52a5.88,5.88,0,0,0,.74.2c.29.07.6.12.93.17l1,.11c.35,0,.69.05,1,.05a6.67,6.67,0,0,0,1.09-.08,1.84,1.84,0,0,0,.72-.26,1.12,1.12,0,0,0,.39-.5,2,2,0,0,0,.11-.74,2.08,2.08,0,0,0-.09-.65,1.1,1.1,0,0,0-.35-.47,2.47,2.47,0,0,0-.73-.38c-.31-.11-.71-.23-1.22-.36a12.13,12.13,0,0,1-1.76-.54,3.4,3.4,0,0,1-1.11-.73,2.35,2.35,0,0,1-.59-1,5.85,5.85,0,0,1-.17-1.5,3.39,3.39,0,0,1,1.26-3,6.25,6.25,0,0,1,3.57-.88,12.88,12.88,0,0,1,2,.14,8.45,8.45,0,0,1,1.4.34v2.37l-.63-.16c-.25-.06-.53-.11-.83-.16l-.93-.12-.88,0a3.43,3.43,0,0,0-1.62.28,1.17,1.17,0,0,0-.51,1.12,1.73,1.73,0,0,0,.08.55.81.81,0,0,0,.31.41,2.47,2.47,0,0,0,.69.33,11.3,11.3,0,0,0,1.16.33,10.66,10.66,0,0,1,1.93.63,3.65,3.65,0,0,1,1.18.84,2.48,2.48,0,0,1,.58,1.14,7.28,7.28,0,0,1,.15,1.59,3.67,3.67,0,0,1-1.18,2.95A5.91,5.91,0,0,1,386.7,195.24Z" transform="translate(-20.48 -180.47)"/><path class="cls-1" d="M398.69,195.24a8.67,8.67,0,0,1-2.14-.25,3.56,3.56,0,0,1-1.58-.85,3.89,3.89,0,0,1-1-1.64,8.16,8.16,0,0,1-.35-2.58,8.27,8.27,0,0,1,.35-2.59,3.85,3.85,0,0,1,1-1.63,3.58,3.58,0,0,1,1.58-.86,8.7,8.7,0,0,1,2.14-.24,8.56,8.56,0,0,1,2.13.24,3.5,3.5,0,0,1,1.56.86,3.87,3.87,0,0,1,1,1.63,8.3,8.3,0,0,1,.34,2.59,8.19,8.19,0,0,1-.34,2.58,3.91,3.91,0,0,1-1,1.64,3.49,3.49,0,0,1-1.56.85A8.53,8.53,0,0,1,398.69,195.24Zm0-2.09a3.15,3.15,0,0,0,1.05-.15,1.4,1.4,0,0,0,.69-.53,2.44,2.44,0,0,0,.36-1,9.78,9.78,0,0,0,.1-1.56,9.65,9.65,0,0,0-.11-1.56,2.77,2.77,0,0,0-.37-1,1.45,1.45,0,0,0-.68-.54,2.84,2.84,0,0,0-1-.16,3,3,0,0,0-1.06.16,1.45,1.45,0,0,0-.68.54,2.6,2.6,0,0,0-.36,1,9.65,9.65,0,0,0-.11,1.56,8.52,8.52,0,0,0,.12,1.56,2.44,2.44,0,0,0,.37,1,1.4,1.4,0,0,0,.67.53A3.15,3.15,0,0,0,398.69,193.15Z" transform="translate(-20.48 -180.47)"/><path class="cls-1" d="M406.4,184.69a7.34,7.34,0,0,1,.26-2.14,2.85,2.85,0,0,1,.74-1.27,2.44,2.44,0,0,1,1.2-.6,8,8,0,0,1,1.64-.15l.52,0a3.65,3.65,0,0,1,.49.06v2a2.94,2.94,0,0,0-.37,0h-.37a2.11,2.11,0,0,0-.68.09.82.82,0,0,0-.41.35,1.93,1.93,0,0,0-.21.7,11,11,0,0,0,0,1.12h2v2.14h-2v8.12H406.4v-8.12h-1.57v-2.14h1.57Zm9.83,8.29h.26l.3-.05v2.13a6.26,6.26,0,0,1-1.19.11,5.27,5.27,0,0,1-1.43-.16,2.25,2.25,0,0,1-.91-.48,1.88,1.88,0,0,1-.49-.83,4.2,4.2,0,0,1-.15-1.19V180.61h2.75v11.23a1.48,1.48,0,0,0,.2.91A.84.84,0,0,0,416.23,193Z" transform="translate(-20.48 -180.47)"/><path class="cls-1" d="M427.34,189.1c0,.29,0,.57,0,.83s0,.46-.06.6l-6.62.41a2.11,2.11,0,0,0,.74,1.62,3.37,3.37,0,0,0,2,.51,6.52,6.52,0,0,0,1-.07,9.41,9.41,0,0,0,.95-.16,8.52,8.52,0,0,0,.84-.22,4.57,4.57,0,0,0,.64-.27v2.17a4.47,4.47,0,0,1-.62.26,5.88,5.88,0,0,1-.9.23c-.34.06-.72.12-1.13.16a10.63,10.63,0,0,1-1.28.07,8.42,8.42,0,0,1-2.11-.25,3.52,3.52,0,0,1-1.57-.85,3.91,3.91,0,0,1-1-1.64,8.19,8.19,0,0,1-.34-2.58,8.3,8.3,0,0,1,.34-2.59,3.88,3.88,0,0,1,1-1.63,3.61,3.61,0,0,1,1.59-.86,8.84,8.84,0,0,1,2.15-.24,6.16,6.16,0,0,1,2.19.33,3.1,3.1,0,0,1,1.34.93,3.28,3.28,0,0,1,.68,1.43A8.47,8.47,0,0,1,427.34,189.1Zm-2.51-.4a5,5,0,0,0-.06-.79,1.67,1.67,0,0,0-.27-.64,1.29,1.29,0,0,0-.57-.44,2.44,2.44,0,0,0-1-.16,3.56,3.56,0,0,0-1.07.14,1.7,1.7,0,0,0-.7.43,1.76,1.76,0,0,0-.39.73,4.46,4.46,0,0,0-.16,1.05Z" transform="translate(-20.48 -180.47)"/><path class="cls-1" d="M443.79,195.05h-3.36l-2.77-4.37h-.48v4.37h-2.75V180.61h2.75v8h.59l2.68-3.78h3.19L440,189.58Z" transform="translate(-20.48 -180.47)"/><path class="cls-1" d="M453.79,189.1c0,.29,0,.57,0,.83a5,5,0,0,1-.07.6l-6.61.41a2.11,2.11,0,0,0,.74,1.62,3.33,3.33,0,0,0,2,.51,6.42,6.42,0,0,0,1-.07,9,9,0,0,0,.95-.16,8.05,8.05,0,0,0,.85-.22,4.57,4.57,0,0,0,.64-.27v2.17a5.06,5.06,0,0,1-.62.26,5.88,5.88,0,0,1-.9.23c-.35.06-.72.12-1.13.16a10.8,10.8,0,0,1-1.29.07,8.48,8.48,0,0,1-2.11-.25,3.49,3.49,0,0,1-1.56-.85,3.91,3.91,0,0,1-1-1.64,8.19,8.19,0,0,1-.34-2.58,8.3,8.3,0,0,1,.34-2.59,3.88,3.88,0,0,1,1-1.63,3.61,3.61,0,0,1,1.59-.86,8.78,8.78,0,0,1,2.15-.24,6.1,6.1,0,0,1,2.18.33,3.2,3.2,0,0,1,1.35.93,3.28,3.28,0,0,1,.68,1.43A8.47,8.47,0,0,1,453.79,189.1Zm-2.51-.4a4,4,0,0,0-.07-.79,1.52,1.52,0,0,0-.26-.64,1.41,1.41,0,0,0-.57-.44,2.48,2.48,0,0,0-1-.16,3.56,3.56,0,0,0-1.07.14,1.7,1.7,0,0,0-.7.43,1.77,1.77,0,0,0-.4.73,4,4,0,0,0-.15,1.05Z" transform="translate(-20.48 -180.47)"/><path class="cls-1" d="M456,196.47a3.51,3.51,0,0,0,1.86-.37,2,2,0,0,0,.8-1.15l-4-10.16h3.06l2.41,7.31h.12l2.28-7.31h3l-3.44,9.31a17.66,17.66,0,0,1-1,2.29,4.7,4.7,0,0,1-1.17,1.46,4.09,4.09,0,0,1-1.61.77,9.71,9.71,0,0,1-2.26.23Z" transform="translate(-20.48 -180.47)"/><path class="cls-1" d="M472.86,184.6a4.82,4.82,0,0,1,2.05.37,2.92,2.92,0,0,1,1.24,1.06,4.53,4.53,0,0,1,.63,1.68,13.51,13.51,0,0,1,.17,2.21,12.39,12.39,0,0,1-.17,2.07,4.86,4.86,0,0,1-.63,1.69,3.25,3.25,0,0,1-1.24,1.14,4.37,4.37,0,0,1-2.05.42,5.73,5.73,0,0,1-1.26-.12,2.66,2.66,0,0,1-.89-.33,2.21,2.21,0,0,1-.61-.51,2.52,2.52,0,0,1-.39-.68l-.19,1.45H467V180.61h2.76V186a2.65,2.65,0,0,1,1-1A4.16,4.16,0,0,1,472.86,184.6Zm-.87,8.55a2.2,2.2,0,0,0,1.13-.26,1.73,1.73,0,0,0,.65-.69,2.89,2.89,0,0,0,.3-1,12.22,12.22,0,0,0,.07-1.25,10.31,10.31,0,0,0-.08-1.3,3.1,3.1,0,0,0-.3-1,1.7,1.7,0,0,0-.65-.68,2.14,2.14,0,0,0-1.12-.25,2.61,2.61,0,0,0-1.16.22,1.79,1.79,0,0,0-.73.63,2.57,2.57,0,0,0-.38,1,8.25,8.25,0,0,0-.11,1.39,7.81,7.81,0,0,0,.11,1.34,2.48,2.48,0,0,0,.38,1,1.83,1.83,0,0,0,.73.65A2.6,2.6,0,0,0,472,193.15Z" transform="translate(-20.48 -180.47)"/><path class="cls-1" d="M483.69,195.24a8.53,8.53,0,0,1-2.13-.25,3.51,3.51,0,0,1-1.58-.85,3.91,3.91,0,0,1-1-1.64,8.19,8.19,0,0,1-.34-2.58,8.3,8.3,0,0,1,.34-2.59,3.87,3.87,0,0,1,1-1.63,3.52,3.52,0,0,1,1.58-.86,9.57,9.57,0,0,1,4.26,0,3.59,3.59,0,0,1,1.57.86,4,4,0,0,1,1,1.63,8.6,8.6,0,0,1,.34,2.59,8.49,8.49,0,0,1-.34,2.58,4,4,0,0,1-1,1.64,3.58,3.58,0,0,1-1.57.85A8.53,8.53,0,0,1,483.69,195.24Zm0-2.09a3.26,3.26,0,0,0,1.06-.15,1.42,1.42,0,0,0,.68-.53,2.44,2.44,0,0,0,.36-1,9.65,9.65,0,0,0,.11-1.56,8.52,8.52,0,0,0-.12-1.56,2.6,2.6,0,0,0-.37-1,1.42,1.42,0,0,0-.67-.54,3.53,3.53,0,0,0-2.1,0,1.47,1.47,0,0,0-.69.54,2.6,2.6,0,0,0-.36,1,9.78,9.78,0,0,0-.1,1.56,9.65,9.65,0,0,0,.11,1.56,2.6,2.6,0,0,0,.37,1,1.42,1.42,0,0,0,.68.53A3.09,3.09,0,0,0,483.69,193.15Z" transform="translate(-20.48 -180.47)"/><path class="cls-1" d="M495.24,184.62a9.57,9.57,0,0,1,2.18.21,3.94,3.94,0,0,1,1.43.64,2.31,2.31,0,0,1,.77,1,3.93,3.93,0,0,1,.24,1.43v7.11h-2.47l-.26-1.2a2.62,2.62,0,0,1-1.16,1,4.84,4.84,0,0,1-2.11.41,3.9,3.9,0,0,1-2.62-.77,2.94,2.94,0,0,1-.9-2.37,2.81,2.81,0,0,1,1.08-2.51,5.63,5.63,0,0,1,3.14-.72h2.55v-.26a2.88,2.88,0,0,0-.09-.78,1,1,0,0,0-.33-.53A1.66,1.66,0,0,0,496,187a5.39,5.39,0,0,0-1.1-.09c-.37,0-.73,0-1.1,0a9.36,9.36,0,0,0-1.08.15v-2.34c.39-.05.81-.09,1.27-.12Zm-.68,8.51a3.66,3.66,0,0,0,1.62-.33,2,2,0,0,0,.93-.87v-1.2H495a3.23,3.23,0,0,0-1.47.25,1.08,1.08,0,0,0-.45,1,1,1,0,0,0,.35.86A2,2,0,0,0,494.56,193.13Z" transform="translate(-20.48 -180.47)"/><path class="cls-1" d="M508.64,184.6l-.08,2.45h-.26a4.23,4.23,0,0,0-.94.1,2.67,2.67,0,0,0-.85.35,2.48,2.48,0,0,0-.66.67,2.63,2.63,0,0,0-.4,1v5.84h-2.76V184.79h2.76v1.84a3.45,3.45,0,0,1,.56-1,2.9,2.9,0,0,1,.71-.62,2.4,2.4,0,0,1,.82-.31,5.26,5.26,0,0,1,.89-.07Z" transform="translate(-20.48 -180.47)"/><path class="cls-1" d="M519.56,180.61v14.44h-2.48l-.21-1.43a2.64,2.64,0,0,1-1,1.16,3.93,3.93,0,0,1-2.12.46,5,5,0,0,1-2.05-.37,3,3,0,0,1-1.26-1.07,4.35,4.35,0,0,1-.62-1.68,12.37,12.37,0,0,1-.17-2.2,11.27,11.27,0,0,1,.17-2.07,4.6,4.6,0,0,1,.62-1.69,3.16,3.16,0,0,1,1.26-1.14,4.37,4.37,0,0,1,2.05-.42,4.14,4.14,0,0,1,2.1.41,2.34,2.34,0,0,1,1,1.09v-5.49Zm-5,12.54a2.77,2.77,0,0,0,1.16-.21,1.66,1.66,0,0,0,.73-.63,2.93,2.93,0,0,0,.37-1,7.91,7.91,0,0,0,.1-1.37,7.78,7.78,0,0,0-.1-1.34,3.06,3.06,0,0,0-.37-1,1.87,1.87,0,0,0-.73-.66,2.47,2.47,0,0,0-1.16-.24,2.09,2.09,0,0,0-1.14.27,1.65,1.65,0,0,0-.65.71,3.18,3.18,0,0,0-.29,1,12.53,12.53,0,0,0-.06,1.26c0,.47,0,.9.06,1.3a2.92,2.92,0,0,0,.3,1,1.61,1.61,0,0,0,.65.67A2.34,2.34,0,0,0,514.6,193.15Z" transform="translate(-20.48 -180.47)"/><path class="cls-1" d="M536.59,195.05h-3.37l-2.77-4.37H530v4.37h-2.76V180.61H530v8h.58l2.68-3.78h3.2l-3.65,4.79Z" transform="translate(-20.48 -180.47)"/><path class="cls-1" d="M546.58,189.1c0,.29,0,.57,0,.83s0,.46-.06.6l-6.62.41a2.09,2.09,0,0,0,.75,1.62,3.31,3.31,0,0,0,2,.51,6.52,6.52,0,0,0,1-.07,9.41,9.41,0,0,0,1-.16,8.52,8.52,0,0,0,.84-.22,4.57,4.57,0,0,0,.64-.27v2.17a4.47,4.47,0,0,1-.62.26,5.88,5.88,0,0,1-.9.23c-.34.06-.72.12-1.13.16a10.63,10.63,0,0,1-1.28.07A8.42,8.42,0,0,1,540,195a3.52,3.52,0,0,1-1.57-.85,4,4,0,0,1-1-1.64,8.19,8.19,0,0,1-.34-2.58,8.3,8.3,0,0,1,.34-2.59,3.88,3.88,0,0,1,1-1.63,3.61,3.61,0,0,1,1.59-.86,8.84,8.84,0,0,1,2.15-.24,6.16,6.16,0,0,1,2.19.33,3.2,3.2,0,0,1,1.35.93,3.27,3.27,0,0,1,.67,1.43A8.47,8.47,0,0,1,546.58,189.1Zm-2.51-.4a5,5,0,0,0-.06-.79,1.67,1.67,0,0,0-.27-.64,1.29,1.29,0,0,0-.57-.44,2.44,2.44,0,0,0-1-.16,3.56,3.56,0,0,0-1.07.14,1.6,1.6,0,0,0-.69.43,1.77,1.77,0,0,0-.4.73,4.46,4.46,0,0,0-.16,1.05Z" transform="translate(-20.48 -180.47)"/><path class="cls-1" d="M548.82,196.47a3.55,3.55,0,0,0,1.87-.37,2,2,0,0,0,.79-1.15l-4-10.16h3.06L553,192.1h.12l2.28-7.31h3l-3.44,9.31a19.25,19.25,0,0,1-1,2.29,4.87,4.87,0,0,1-1.18,1.46,4,4,0,0,1-1.61.77,9.71,9.71,0,0,1-2.26.23Z" transform="translate(-20.48 -180.47)"/><path class="cls-1" d="M564.16,195.24A8.67,8.67,0,0,1,562,195a3.69,3.69,0,0,1-1.6-.85,3.93,3.93,0,0,1-1-1.64,8.49,8.49,0,0,1-.34-2.58,8.6,8.6,0,0,1,.34-2.59,3.9,3.9,0,0,1,1-1.63,3.7,3.7,0,0,1,1.6-.86,8.7,8.7,0,0,1,2.14-.24,13.83,13.83,0,0,1,1.46.08,7,7,0,0,1,1.18.24v2.32a6.49,6.49,0,0,0-2.28-.38,4.49,4.49,0,0,0-1.18.14,1.75,1.75,0,0,0-.81.49,2.22,2.22,0,0,0-.46.95,6.93,6.93,0,0,0,0,3,2.15,2.15,0,0,0,.47.93,1.72,1.72,0,0,0,.83.48,4.23,4.23,0,0,0,1.2.15,7.66,7.66,0,0,0,1.19-.09,5.52,5.52,0,0,0,1.13-.29v2.26a2.91,2.91,0,0,1-.54.16c-.21,0-.44.09-.68.12s-.5.07-.76.09Z" transform="translate(-20.48 -180.47)"/><path class="cls-1" d="M573.39,184.62a9.63,9.63,0,0,1,2.18.21,3.89,3.89,0,0,1,1.42.64,2.41,2.41,0,0,1,.78,1,3.93,3.93,0,0,1,.24,1.43v7.11h-2.47l-.27-1.2a2.52,2.52,0,0,1-1.16,1,4.84,4.84,0,0,1-2.11.41,3.94,3.94,0,0,1-2.62-.77,3,3,0,0,1-.89-2.37,2.83,2.83,0,0,1,1.07-2.51,5.69,5.69,0,0,1,3.15-.72h2.54v-.26a3.4,3.4,0,0,0-.08-.78,1,1,0,0,0-.34-.53,1.55,1.55,0,0,0-.66-.29,5.46,5.46,0,0,0-1.1-.09c-.37,0-.74,0-1.11,0a10,10,0,0,0-1.08.15v-2.34c.39-.05.82-.09,1.27-.12Zm-.68,8.51a3.58,3.58,0,0,0,1.61-.33,2,2,0,0,0,.93-.87v-1.2h-2.13a3.29,3.29,0,0,0-1.47.25,1.07,1.07,0,0,0-.44,1,1,1,0,0,0,.35.86A2,2,0,0,0,572.71,193.13Z" transform="translate(-20.48 -180.47)"/><path class="cls-1" d="M586.69,184.6a4.74,4.74,0,0,1,2,.37A3,3,0,0,1,590,186a4.35,4.35,0,0,1,.62,1.68,12.48,12.48,0,0,1,.17,2.21,11.42,11.42,0,0,1-.17,2.07,4.66,4.66,0,0,1-.62,1.69,3.28,3.28,0,0,1-1.25,1.14,4.3,4.3,0,0,1-2,.42,4.25,4.25,0,0,1-2.1-.41,2.39,2.39,0,0,1-1-1.09v5.11h-2.75V184.79h2.75V186a2.68,2.68,0,0,1,1-1A4.16,4.16,0,0,1,586.69,184.6Zm-.87,8.55a2.22,2.22,0,0,0,1.13-.26,1.73,1.73,0,0,0,.65-.69,3.11,3.11,0,0,0,.3-1,12.32,12.32,0,0,0,.06-1.25,10.41,10.41,0,0,0-.07-1.3,3.1,3.1,0,0,0-.31-1,1.68,1.68,0,0,0-.64-.68,2.16,2.16,0,0,0-1.12-.25,2.61,2.61,0,0,0-1.16.22,1.81,1.81,0,0,0-.74.63,2.73,2.73,0,0,0-.38,1,9.54,9.54,0,0,0-.1,1.39,9,9,0,0,0,.1,1.34,2.63,2.63,0,0,0,.38,1,1.86,1.86,0,0,0,.74.65A2.6,2.6,0,0,0,585.82,193.15Z" transform="translate(-20.48 -180.47)"/><path class="cls-1" d="M595.83,195.16c-.6,0-1.17,0-1.73-.08a14.3,14.3,0,0,1-1.52-.24v-2.3a11.15,11.15,0,0,0,3.1.47,3.2,3.2,0,0,0,1.3-.2.84.84,0,0,0,.41-.82,1.47,1.47,0,0,0-.08-.51.84.84,0,0,0-.29-.37,2.42,2.42,0,0,0-.6-.27l-1-.28a8.07,8.07,0,0,1-1.35-.42,2.53,2.53,0,0,1-.83-.57,1.72,1.72,0,0,1-.42-.8,4.49,4.49,0,0,1-.12-1.11,3.77,3.77,0,0,1,.22-1.3,2.24,2.24,0,0,1,.71-1,3.71,3.71,0,0,1,1.28-.59,7.39,7.39,0,0,1,1.9-.21,13.88,13.88,0,0,1,1.62.09,6.33,6.33,0,0,1,1.19.25l-.11,2.11-.52-.13-.65-.12c-.24,0-.48-.07-.73-.09a5.74,5.74,0,0,0-.71,0,2.65,2.65,0,0,0-1.28.21.8.8,0,0,0-.33.74,1.12,1.12,0,0,0,.06.4.6.6,0,0,0,.28.26,2.58,2.58,0,0,0,.58.23c.25.08.57.17,1,.27a7.92,7.92,0,0,1,1.38.46,2.85,2.85,0,0,1,.88.61,2,2,0,0,1,.44.86,4.63,4.63,0,0,1,.13,1.2,3.63,3.63,0,0,1-.29,1.53,2.49,2.49,0,0,1-.81,1,3.6,3.6,0,0,1-1.32.55A8.4,8.4,0,0,1,595.83,195.16Z" transform="translate(-20.48 -180.47)"/><path class="cls-1" d="M27.89,531.36l-3.1-4.81H23.36v4.81H20.48V518.17H25a10.11,10.11,0,0,1,2.29.23,4,4,0,0,1,1.59.72,2.94,2.94,0,0,1,.92,1.3,5.73,5.73,0,0,1,.29,1.93,4.75,4.75,0,0,1-.6,2.59,3.24,3.24,0,0,1-1.87,1.31l3.71,5.11Zm-3.37-7a7.43,7.43,0,0,0,1.24-.08,2,2,0,0,0,.82-.31,1.4,1.4,0,0,0,.46-.63,3.28,3.28,0,0,0,.14-1,2.87,2.87,0,0,0-.14-1,1.26,1.26,0,0,0-.46-.58,2,2,0,0,0-.82-.28,8.69,8.69,0,0,0-1.24-.08H23.36v3.95Z" transform="translate(-20.48 -180.47)"/><path class="cls-1" d="M36.42,520.66l-3.23.63V519l4-.8h2.07v13.19H36.42Z" transform="translate(-20.48 -180.47)"/><path class="cls-1" d="M868.77,621.44l-3.23.63v-2.32l4-.8h2.08v13.19h-2.8Z" transform="translate(-20.48 -180.47)"/><path class="cls-1" d="M876.6,632.25a6.63,6.63,0,0,1-.88,0,1,1,0,0,1-.51-.25,1,1,0,0,1-.22-.52,4.9,4.9,0,0,1-.06-.87,5.1,5.1,0,0,1,.06-.88,1,1,0,0,1,.22-.52.87.87,0,0,1,.51-.23,5.1,5.1,0,0,1,.88-.06,4.93,4.93,0,0,1,.86.06.87.87,0,0,1,.52.23,1,1,0,0,1,.24.52,6.63,6.63,0,0,1,0,.88,6.36,6.36,0,0,1,0,.87,1,1,0,0,1-.24.52.94.94,0,0,1-.52.25A6.41,6.41,0,0,1,876.6,632.25Z" transform="translate(-20.48 -180.47)"/><path class="cls-1" d="M880.69,629.67c1.15-.93,2.11-1.73,2.89-2.42a24.56,24.56,0,0,0,1.88-1.79,6.12,6.12,0,0,0,1-1.37,2.61,2.61,0,0,0,.3-1.17,1.66,1.66,0,0,0-.61-1.48,3,3,0,0,0-1.69-.4,8.59,8.59,0,0,0-1.38.12,10.07,10.07,0,0,0-1.59.38v-2.3a8.25,8.25,0,0,1,1.66-.36,13.76,13.76,0,0,1,1.84-.12,5.54,5.54,0,0,1,3.4.92,3.33,3.33,0,0,1,1.22,2.82,6,6,0,0,1-.18,1.5,4.56,4.56,0,0,1-.69,1.43,10.44,10.44,0,0,1-1.4,1.61c-.61.57-1.39,1.24-2.35,2l-.84.67v.15h5.76v2.28h-9.21Z" transform="translate(-20.48 -180.47)"/><path class="cls-1" d="M895.35,632.33c-.57,0-1.07,0-1.52-.06a13.27,13.27,0,0,1-1.35-.19v-2.36l.67.14.61.1a6.07,6.07,0,0,0,.63.07l.74,0a6.29,6.29,0,0,0,1.19-.1,2.6,2.6,0,0,0,.95-.33,1.68,1.68,0,0,0,.63-.64,2,2,0,0,0,.23-1,1.74,1.74,0,0,0-.71-1.59,4.25,4.25,0,0,0-2.24-.45,11.6,11.6,0,0,0-1.36.09c-.5.06-1,.12-1.39.2l.93-7.28h6.8v2.34h-4.6l-.42,2.72a5.5,5.5,0,0,1,.67-.11c.22,0,.46,0,.74,0a4.87,4.87,0,0,1,3.33,1,3.9,3.9,0,0,1,1.12,3.07,4.62,4.62,0,0,1-.39,2,3.59,3.59,0,0,1-1.11,1.36,4.88,4.88,0,0,1-1.77.8A10.08,10.08,0,0,1,895.35,632.33Z" transform="translate(-20.48 -180.47)"/><path class="cls-1" d="M912.74,621.88v10.26h-2.49L910,630.9a2.58,2.58,0,0,1-1.22,1.09,5,5,0,0,1-1.93.34,5.3,5.3,0,0,1-1.61-.22,2.43,2.43,0,0,1-1.06-.66,2.6,2.6,0,0,1-.59-1.07,5.38,5.38,0,0,1-.18-1.47v-7h2.75v6.29a2.44,2.44,0,0,0,.34,1.46,1.58,1.58,0,0,0,1.34.46,2.59,2.59,0,0,0,1.33-.32,1.79,1.79,0,0,0,.79-1.11v-6.78Z" transform="translate(-20.48 -180.47)"/><path class="cls-1" d="M928.47,621.44l-3.23.63v-2.32l4-.8h2.07v13.19h-2.79Z" transform="translate(-20.48 -180.47)"/><path class="cls-1" d="M936.3,632.25a6.63,6.63,0,0,1-.88,0,.91.91,0,0,1-.51-.25,1.09,1.09,0,0,1-.23-.52,6.36,6.36,0,0,1,0-.87,6.63,6.63,0,0,1,0-.88,1.09,1.09,0,0,1,.23-.52.84.84,0,0,1,.51-.23,5.1,5.1,0,0,1,.88-.06,5,5,0,0,1,.86.06.87.87,0,0,1,.52.23,1,1,0,0,1,.24.52,6.63,6.63,0,0,1,.05.88,6.36,6.36,0,0,1-.05.87,1,1,0,0,1-.24.52.94.94,0,0,1-.52.25A6.52,6.52,0,0,1,936.3,632.25Z" transform="translate(-20.48 -180.47)"/><path class="cls-1" d="M940.38,629.67c1.16-.93,2.12-1.73,2.9-2.42a24.18,24.18,0,0,0,1.87-1.79,5.9,5.9,0,0,0,1-1.37,2.61,2.61,0,0,0,.3-1.17,1.66,1.66,0,0,0-.61-1.48,3,3,0,0,0-1.69-.4,8.59,8.59,0,0,0-1.38.12,10.07,10.07,0,0,0-1.59.38v-2.3a8.25,8.25,0,0,1,1.66-.36,13.65,13.65,0,0,1,1.84-.12,5.56,5.56,0,0,1,3.4.92,3.33,3.33,0,0,1,1.22,2.82,6,6,0,0,1-.18,1.5,4.56,4.56,0,0,1-.69,1.43A10.44,10.44,0,0,1,947,627c-.61.57-1.39,1.24-2.35,2l-.84.67v.15h5.76v2.28h-9.22Z" transform="translate(-20.48 -180.47)"/><path class="cls-1" d="M955.05,632.33c-.57,0-1.07,0-1.52-.06a13.27,13.27,0,0,1-1.35-.19v-2.36l.67.14.61.1a6.07,6.07,0,0,0,.63.07l.74,0A6.44,6.44,0,0,0,956,630a2.6,2.6,0,0,0,1-.33,1.68,1.68,0,0,0,.63-.64,2,2,0,0,0,.23-1,1.74,1.74,0,0,0-.71-1.59,4.25,4.25,0,0,0-2.24-.45,11.6,11.6,0,0,0-1.36.09c-.5.06-1,.12-1.39.2l.93-7.28h6.8v2.34h-4.6l-.42,2.72a5.5,5.5,0,0,1,.67-.11c.21,0,.46,0,.74,0a4.87,4.87,0,0,1,3.33,1,3.9,3.9,0,0,1,1.12,3.07,4.62,4.62,0,0,1-.39,2,3.52,3.52,0,0,1-1.12,1.36,4.83,4.83,0,0,1-1.76.8A10.08,10.08,0,0,1,955.05,632.33Z" transform="translate(-20.48 -180.47)"/><path class="cls-1" d="M972.44,621.88v10.26H970l-.21-1.24a2.56,2.56,0,0,1-1.23,1.09,4.92,4.92,0,0,1-1.92.34,5.3,5.3,0,0,1-1.61-.22,2.43,2.43,0,0,1-1.06-.66,2.49,2.49,0,0,1-.59-1.07,5.38,5.38,0,0,1-.18-1.47v-7h2.75v6.29a2.52,2.52,0,0,0,.33,1.46,1.61,1.61,0,0,0,1.34.46,2.61,2.61,0,0,0,1.34-.32,1.83,1.83,0,0,0,.79-1.11v-6.78Z" transform="translate(-20.48 -180.47)"/><path class="cls-1" d="M27.89,458.56l-3.1-4.81H23.36v4.81H20.48V445.37H25a10.11,10.11,0,0,1,2.29.23,4,4,0,0,1,1.59.72,3,3,0,0,1,.92,1.29,5.83,5.83,0,0,1,.29,1.94,4.77,4.77,0,0,1-.6,2.59,3.24,3.24,0,0,1-1.87,1.31l3.71,5.11Zm-3.37-7a7.43,7.43,0,0,0,1.24-.08,2,2,0,0,0,.82-.31,1.4,1.4,0,0,0,.46-.63,3.28,3.28,0,0,0,.14-1,2.87,2.87,0,0,0-.14-1,1.26,1.26,0,0,0-.46-.58,2,2,0,0,0-.82-.28,8.69,8.69,0,0,0-1.24-.08H23.36v4Z" transform="translate(-20.48 -180.47)"/><path class="cls-1" d="M36.42,447.86l-3.23.63v-2.32l4-.8h2.07v13.19H36.42Z" transform="translate(-20.48 -180.47)"/><path class="cls-1" d="M27.89,399.64l-3.1-4.8H23.36v4.8H20.48V386.46H25a9.57,9.57,0,0,1,2.29.23,4,4,0,0,1,1.59.72,3,3,0,0,1,.92,1.29,5.79,5.79,0,0,1,.29,1.94,4.74,4.74,0,0,1-.6,2.58,3.19,3.19,0,0,1-1.87,1.31l3.71,5.11Zm-3.37-6.95a7.33,7.33,0,0,0,1.24-.09,1.85,1.85,0,0,0,.82-.31,1.3,1.3,0,0,0,.46-.63,3.17,3.17,0,0,0,.14-1,2.87,2.87,0,0,0-.14-1,1.21,1.21,0,0,0-.46-.58,2,2,0,0,0-.82-.29,8.84,8.84,0,0,0-1.24-.07H23.36v3.95Z" transform="translate(-20.48 -180.47)"/><path class="cls-1" d="M32.33,397.17c1.15-.92,2.12-1.73,2.9-2.41A24.18,24.18,0,0,0,37.1,393a6.45,6.45,0,0,0,1-1.37,2.73,2.73,0,0,0,.29-1.17,1.62,1.62,0,0,0-.61-1.48,3,3,0,0,0-1.69-.4,9.58,9.58,0,0,0-1.37.11,11.31,11.31,0,0,0-1.59.38v-2.3a10,10,0,0,1,1.65-.36,15.86,15.86,0,0,1,1.85-.11,5.56,5.56,0,0,1,3.4.92A3.3,3.3,0,0,1,41.24,390a5.91,5.91,0,0,1-.18,1.49,4.91,4.91,0,0,1-.68,1.44,10.62,10.62,0,0,1-1.41,1.6q-.9.87-2.34,2l-.84.66v.15h5.76v2.28H32.33Z" transform="translate(-20.48 -180.47)"/><path class="cls-1" d="M27.89,331.08l-3.1-4.8H23.36v4.8H20.48V317.9H25a9.57,9.57,0,0,1,2.29.23,4,4,0,0,1,1.59.72,3,3,0,0,1,.92,1.29,5.79,5.79,0,0,1,.29,1.94,4.74,4.74,0,0,1-.6,2.58A3.19,3.19,0,0,1,27.58,326l3.71,5.11Zm-3.37-6.95a7.33,7.33,0,0,0,1.24-.09,1.85,1.85,0,0,0,.82-.31,1.3,1.3,0,0,0,.46-.63,3.17,3.17,0,0,0,.14-1,2.87,2.87,0,0,0-.14-1,1.21,1.21,0,0,0-.46-.58,2,2,0,0,0-.82-.29,8.84,8.84,0,0,0-1.24-.07H23.36v3.95Z" transform="translate(-20.48 -180.47)"/><path class="cls-1" d="M35.64,331.27a16,16,0,0,1-3-.24v-2.36q.75.15,1.41.24a12.7,12.7,0,0,0,1.43.08,7.87,7.87,0,0,0,1.11-.07,2.65,2.65,0,0,0,.9-.29,1.64,1.64,0,0,0,.61-.56,1.67,1.67,0,0,0,.23-.92,1.4,1.4,0,0,0-.86-1.43,6.06,6.06,0,0,0-2.37-.37h-1v-2.11h1a5.52,5.52,0,0,0,2.2-.37,1.39,1.39,0,0,0,.82-1.38,1.24,1.24,0,0,0-.65-1.22,4,4,0,0,0-1.75-.32,9,9,0,0,0-2.56.38v-2.22a7.79,7.79,0,0,1,1.27-.28,11.31,11.31,0,0,1,1.64-.12,10.15,10.15,0,0,1,2,.18,4,4,0,0,1,1.52.61,2.75,2.75,0,0,1,1,1.12,3.93,3.93,0,0,1,.33,1.7,3,3,0,0,1-.5,1.76,3.08,3.08,0,0,1-1.61,1.07v.11a3,3,0,0,1,1.84,1.08,3.78,3.78,0,0,1-.78,5A7.48,7.48,0,0,1,35.64,331.27Z" transform="translate(-20.48 -180.47)"/><path class="cls-1" d="M27.89,257.12l-3.1-4.8H23.36v4.8H20.48V243.94H25a10.16,10.16,0,0,1,2.29.22,4.18,4.18,0,0,1,1.59.73,3,3,0,0,1,.92,1.29,5.79,5.79,0,0,1,.29,1.94,4.74,4.74,0,0,1-.6,2.58A3.19,3.19,0,0,1,27.58,252l3.71,5.11Zm-3.37-7a7.33,7.33,0,0,0,1.24-.09,1.85,1.85,0,0,0,.82-.31,1.3,1.3,0,0,0,.46-.63,3.21,3.21,0,0,0,.14-1,2.78,2.78,0,0,0-.14-1,1.21,1.21,0,0,0-.46-.58,2,2,0,0,0-.82-.29,8.84,8.84,0,0,0-1.24-.07H23.36v3.95Z" transform="translate(-20.48 -180.47)"/><path class="cls-1" d="M41.81,254.31H40.37v2.81H37.73v-2.81H31.86v-2.7l5.3-7.67h3.21v8h1.44ZM37.73,252v-5.18h-.12l-3.42,5.07V252Z" transform="translate(-20.48 -180.47)"/><rect class="cls-1" x="126.53" y="123.84" width="34.02" height="39.69" rx="4.12"/><path class="cls-2" d="M169.71,324.94h-2.82l-2.57-2.19-.52,0a4.94,4.94,0,0,1-2.48-.63,4.49,4.49,0,0,1-1.76-1.85,6.44,6.44,0,0,1,0-5.64,4.53,4.53,0,0,1,1.76-1.84,5.14,5.14,0,0,1,5,0,4.59,4.59,0,0,1,1.76,1.84,5.9,5.9,0,0,1,.65,2.82,5.78,5.78,0,0,1-.62,2.75,4.63,4.63,0,0,1-1.66,1.84Zm-8.31-5.67a2.69,2.69,0,0,0,1,1.21,2.42,2.42,0,0,0,1.43.43,2.47,2.47,0,0,0,1.44-.43,2.73,2.73,0,0,0,1-1.21,4.93,4.93,0,0,0,0-3.6,2.85,2.85,0,0,0-1-1.21,2.54,2.54,0,0,0-1.44-.42,2.48,2.48,0,0,0-1.43.42,2.8,2.8,0,0,0-1,1.21,4.93,4.93,0,0,0,0,3.6Z" transform="translate(-20.48 -180.47)"/><rect class="cls-1" x="178.16" y="123.84" width="34.02" height="39.69" rx="4.12"/><path class="cls-2" d="M216.59,312.36l2.13,6.89,2-6.89h2l-3.19,10.24h-1.57l-2.16-6.69-2.08,6.69h-1.56l-3.33-10.24h2.1l2.1,6.89,2-6.89Z" transform="translate(-20.48 -180.47)"/><rect class="cls-1" x="229.79" y="123.84" width="34.02" height="39.69" rx="4.12"/><path class="cls-2" d="M270.29,318.28h-4.16v2.55h4.8v1.77H264.1V312.36h6.68v1.76h-4.65v2.41h4.16Z" transform="translate(-20.48 -180.47)"/><rect class="cls-1" x="281.42" y="123.84" width="34.02" height="39.69" rx="4.12"/><path class="cls-2" d="M323.7,322.6h-2.42l-2.5-3.68h-1.56v3.69h-2V312.36h3.54a5.13,5.13,0,0,1,2.11.4,3.11,3.11,0,0,1,1.4,1.16,3.22,3.22,0,0,1,0,3.43,3.17,3.17,0,0,1-1.42,1.14Zm-6.48-8.52v3.11h1.27a2.66,2.66,0,0,0,1.49-.39,1.28,1.28,0,0,0,.6-1.17,1.29,1.29,0,0,0-.59-1.17,2.73,2.73,0,0,0-1.5-.38Z" transform="translate(-20.48 -180.47)"/><rect class="cls-1" x="333.05" y="123.84" width="34.02" height="39.69" rx="4.12"/><path class="cls-2" d="M366.46,312.36h8.26v1.8h-3.11v8.44h-2v-8.44h-3.11Z" transform="translate(-20.48 -180.47)"/><rect class="cls-1" x="438.15" y="123.84" width="34.02" height="39.69" rx="4.12"/><path class="cls-2" d="M475.82,316.56l2.32-4.2h2.2l-3.57,6.21v4h-2v-4l-3.72-6.2h2.39Z" transform="translate(-20.48 -180.47)"/><rect class="cls-1" x="489.78" y="123.84" width="34.02" height="39.69" rx="4.12"/><path class="cls-2" d="M529.58,312.36h2v6.1a4.75,4.75,0,0,1-.52,2.29,3.54,3.54,0,0,1-1.49,1.5,5.5,5.5,0,0,1-4.67,0,3.54,3.54,0,0,1-1.49-1.5,4.75,4.75,0,0,1-.52-2.29v-6.1h2V318a3.35,3.35,0,0,0,.61,2.21,2.36,2.36,0,0,0,3.41,0,3.35,3.35,0,0,0,.61-2.21Z" transform="translate(-20.48 -180.47)"/><rect class="cls-1" x="541.41" y="123.84" width="34.02" height="39.69" rx="4.12"/><path class="cls-2" d="M579.92,322.6h-2V312.36h2Z" transform="translate(-20.48 -180.47)"/><rect class="cls-1" x="593.04" y="123.84" width="34.02" height="39.69" rx="4.12"/><path class="cls-2" d="M626.27,314.65a4.59,4.59,0,0,1,1.76-1.84,5.14,5.14,0,0,1,5,0,4.59,4.59,0,0,1,1.76,1.84,6.35,6.35,0,0,1,0,5.64,4.56,4.56,0,0,1-1.76,1.85,5.22,5.22,0,0,1-5,0,4.56,4.56,0,0,1-1.76-1.85,6.53,6.53,0,0,1,0-5.64Zm1.84,4.62a2.75,2.75,0,0,0,1,1.21,2.45,2.45,0,0,0,1.44.43,2.42,2.42,0,0,0,1.43-.43,2.69,2.69,0,0,0,1-1.21,4.93,4.93,0,0,0,0-3.6,2.8,2.8,0,0,0-1-1.21,2.48,2.48,0,0,0-1.43-.42,2.51,2.51,0,0,0-1.44.42,2.87,2.87,0,0,0-1,1.21,4.93,4.93,0,0,0,0,3.6Z" transform="translate(-20.48 -180.47)"/><rect class="cls-1" x="644.67" y="123.84" width="34.02" height="39.69" rx="4.12"/><path class="cls-2" d="M682.37,312.36a5.06,5.06,0,0,1,2.13.42,3.26,3.26,0,0,1,1.4,1.18,3.21,3.21,0,0,1-1.4,4.73,5.06,5.06,0,0,1-2.13.41h-1.5v3.5h-2V312.36Zm-.23,5a2.52,2.52,0,0,0,1.53-.41,1.41,1.41,0,0,0,.57-1.22,1.44,1.44,0,0,0-.57-1.24,2.46,2.46,0,0,0-1.53-.43h-1.27v3.3Z" transform="translate(-20.48 -180.47)"/><rect class="cls-1" x="126.53" y="189.38" width="34.02" height="39.69" rx="4.12"/><path class="cls-2" d="M164.89,377.9,169,388.14h-2.16l-.89-2.33h-4l-.87,2.33h-2l4-10.24Zm.43,6.17-1.37-3.6-1.33,3.6Z" transform="translate(-20.48 -180.47)"/><rect class="cls-1" x="178.16" y="189.38" width="34.02" height="39.69" rx="4.12"/><path class="cls-2" d="M219,386.93a3.27,3.27,0,0,1-1.4,1.05,5.34,5.34,0,0,1-4.42-.33,3.29,3.29,0,0,1-1.53-1.89l1.66-.93a2.62,2.62,0,0,0,2.52,1.65,2,2,0,0,0,1.15-.3,1,1,0,0,0,.43-.85,1,1,0,0,0-.29-.74,1.94,1.94,0,0,0-.71-.46c-.29-.12-.68-.25-1.17-.4a12.3,12.3,0,0,1-1.63-.58,2.78,2.78,0,0,1-1.07-.86,2.38,2.38,0,0,1-.45-1.51,2.72,2.72,0,0,1,.52-1.69,3.22,3.22,0,0,1,1.39-1,4.91,4.91,0,0,1,1.85-.35,4.26,4.26,0,0,1,2.33.62,2.76,2.76,0,0,1,1.24,1.67l-1.65.93a2.34,2.34,0,0,0-.75-1,2.13,2.13,0,0,0-1.26-.37,1.86,1.86,0,0,0-1.12.32,1,1,0,0,0-.42.83.89.89,0,0,0,.26.65,1.87,1.87,0,0,0,.68.42c.28.11.65.23,1.11.37a12.83,12.83,0,0,1,1.67.6,3.13,3.13,0,0,1,1.13.89,2.49,2.49,0,0,1,.47,1.57A2.79,2.79,0,0,1,219,386.93Z" transform="translate(-20.48 -180.47)"/><rect class="cls-1" x="229.79" y="189.38" width="34.02" height="39.69" rx="4.12"/><path class="cls-2" d="M266.57,377.9a6,6,0,0,1,2.71.6,4.61,4.61,0,0,1,1.91,1.75,5.77,5.77,0,0,1,0,5.51,4.53,4.53,0,0,1-1.91,1.77,5.84,5.84,0,0,1-2.71.61h-3.42V377.9Zm-.24,8.51a3.09,3.09,0,0,0,3.42-3.4,3.1,3.1,0,0,0-3.42-3.39h-1.15v6.79Z" transform="translate(-20.48 -180.47)"/><rect class="cls-1" x="281.42" y="189.38" width="34.02" height="39.69" rx="4.12"/><path class="cls-2" d="M316,377.9h6.68v1.77H318v2.62h4.16v1.77H318v4.08h-2Z" transform="translate(-20.48 -180.47)"/><rect class="cls-1" x="333.05" y="189.38" width="34.02" height="39.69" rx="4.12"/><path class="cls-2" d="M371.08,384.21v-1.75H375v4.17a3.28,3.28,0,0,1-1.52,1.23,5.75,5.75,0,0,1-2.3.45,5.18,5.18,0,0,1-2.66-.67,4.62,4.62,0,0,1-1.81-1.88,6.21,6.21,0,0,1,0-5.53,4.68,4.68,0,0,1,1.83-1.86,5.1,5.1,0,0,1,2.57-.66,4.64,4.64,0,0,1,2.46.64A3.19,3.19,0,0,1,375,380l-1.68,1a2.5,2.5,0,0,0-.88-1,2.54,2.54,0,0,0-1.36-.37,2.72,2.72,0,0,0-1.49.42,2.87,2.87,0,0,0-1,1.21,4.14,4.14,0,0,0-.38,1.82,4.23,4.23,0,0,0,.38,1.84,2.81,2.81,0,0,0,1.1,1.21,3.15,3.15,0,0,0,1.64.42,2.34,2.34,0,0,0,1.71-.6v-1.67Z" transform="translate(-20.48 -180.47)"/><rect class="cls-1" x="438.15" y="189.38" width="34.02" height="39.69" rx="4.12"/><path class="cls-2" d="M473.32,381.93h4.62v-4h2v10.24h-2v-4.41h-4.62v4.41h-2V377.9h2Z" transform="translate(-20.48 -180.47)"/><rect class="cls-1" x="489.78" y="189.38" width="34.02" height="39.69" rx="4.12"/><path class="cls-2" d="M524.68,387.77a2.68,2.68,0,0,1-1.08-1.67l1.68-.9a2,2,0,0,0,.5.94,1.2,1.2,0,0,0,.86.31,1.06,1.06,0,0,0,1-.51,3.38,3.38,0,0,0,.29-1.59V377.9h2v6.65a3.79,3.79,0,0,1-.94,2.88,3.33,3.33,0,0,1-2.39.88A3.43,3.43,0,0,1,524.68,387.77Z" transform="translate(-20.48 -180.47)"/><rect class="cls-1" x="541.41" y="189.38" width="34.02" height="39.69" rx="4.12"/><path class="cls-2" d="M579.7,382.08l4.35,6.06h-2.61l-3.2-4.5-1.4,1.49v3h-2V377.9h2v4.77l4.26-4.77h2.53Z" transform="translate(-20.48 -180.47)"/><rect class="cls-1" x="593.04" y="189.38" width="34.02" height="39.69" rx="4.12"/><path class="cls-2" d="M626.12,377.9h2v8.42h4.66v1.82h-6.69Z" transform="translate(-20.48 -180.47)"/><rect class="cls-1" x="126.53" y="254.92" width="34.02" height="39.69" rx="4.12"/><path class="cls-2" d="M167.71,443.43v1.12L163,451.86h5v1.82h-7.78v-1.13l4.77-7.31h-4.34v-1.81Z" transform="translate(-20.48 -180.47)"/><rect class="cls-1" x="178.16" y="254.92" width="34.02" height="39.69" rx="4.12"/><path class="cls-2" d="M220.41,443.43l-3.59,5,3.76,5.25h-2.52l-2.49-3.6-2.51,3.6h-2.35l3.75-5.21-3.58-5h2.48l2.35,3.39,2.35-3.39Z" transform="translate(-20.48 -180.47)"/><rect class="cls-1" x="229.79" y="254.92" width="34.02" height="39.69" rx="4.12"/><path class="cls-2" d="M269.25,451.6a2.73,2.73,0,0,0,.86-1.1l1.69,1a3.39,3.39,0,0,1-1.38,1.7,4.23,4.23,0,0,1-2.41.67,4.74,4.74,0,0,1-4.26-2.53,5.79,5.79,0,0,1-.65-2.78,5.67,5.67,0,0,1,.65-2.77,4.62,4.62,0,0,1,1.78-1.86,4.79,4.79,0,0,1,2.48-.66,4.23,4.23,0,0,1,2.41.67,3.39,3.39,0,0,1,1.38,1.7l-1.69,1a2.64,2.64,0,0,0-.86-1.09,2.14,2.14,0,0,0-1.28-.4,2.43,2.43,0,0,0-1.4.42,2.87,2.87,0,0,0-1,1.2,4.43,4.43,0,0,0-.35,1.81,4.48,4.48,0,0,0,.35,1.82,2.84,2.84,0,0,0,1,1.21,2.43,2.43,0,0,0,1.4.42A2.13,2.13,0,0,0,269.25,451.6Z" transform="translate(-20.48 -180.47)"/><rect class="cls-1" x="281.42" y="254.92" width="34.02" height="39.69" rx="4.12"/><path class="cls-2" d="M316.33,443.43l2.74,7.41,2.63-7.41h2.17l-4,10.25h-1.72L314,443.43Z" transform="translate(-20.48 -180.47)"/><rect class="cls-1" x="333.05" y="254.92" width="34.02" height="39.69" rx="4.12"/><path class="cls-2" d="M374.8,450.73a2.6,2.6,0,0,1-1,2.17,4.6,4.6,0,0,1-2.85.78h-4.09V443.43h3.71a4.44,4.44,0,0,1,2.67.75,2.47,2.47,0,0,1,1,2.11,2.23,2.23,0,0,1-1.15,2.07A2.31,2.31,0,0,1,374.8,450.73Zm-6-5.53v2.42h1.52a2.21,2.21,0,0,0,1.31-.34,1.07,1.07,0,0,0,.49-.92,1,1,0,0,0-.48-.86,2.48,2.48,0,0,0-1.32-.3Zm1.93,6.72a2.46,2.46,0,0,0,1.42-.34,1.08,1.08,0,0,0,.5-.95,1.14,1.14,0,0,0-.5-1,2.49,2.49,0,0,0-1.43-.35h-1.92v2.61Z" transform="translate(-20.48 -180.47)"/><rect class="cls-1" x="438.15" y="254.92" width="34.02" height="39.69" rx="4.12"/><path class="cls-2" d="M473,443.43l5,6.78v-6.78h1.89v10.25h-1.65l-5-6.79v6.79H471.4V443.43Z" transform="translate(-20.48 -180.47)"/><rect class="cls-1" x="489.78" y="254.92" width="34.02" height="39.69" rx="4.12"/><path class="cls-2" d="M530.79,443.43h1.54v10.25H530.4v-6.61L527.8,451h-1.07l-2.61-3.9v6.63H522.2V443.43h1.61l3.5,5.31Z" transform="translate(-20.48 -180.47)"/><rect class="cls-1" x="541.41" y="254.92" width="34.02" height="39.69" rx="4.12"/><path class="cls-2" d="M575.73,442.09v1.84l-4.6,1.84,4.6,1.83v1.85l-7.14-2.83v-1.71Z" transform="translate(-20.48 -180.47)"/><path class="cls-2" d="M570.82,465.89a1.88,1.88,0,0,1,.38,1.28,3.19,3.19,0,0,1-.34,1.45,2.88,2.88,0,0,1-.92,1.09,3,3,0,0,1-1.29.56v-1a1.9,1.9,0,0,0,.94-.5,1.51,1.51,0,0,0,.42-.91h-.07a1.08,1.08,0,0,1-.83-.35,1.15,1.15,0,0,1-.32-.84,1.2,1.2,0,0,1,.31-.84,1,1,0,0,1,.79-.34A1.18,1.18,0,0,1,570.82,465.89Z" transform="translate(-20.48 -180.47)"/><path class="cls-3" d="M589.31,444.1a3.19,3.19,0,0,1-.31,1.56.75.75,0,1,0,0,1.45,3.17,3.17,0,0,1,.31,1.56v1.41a2,2,0,0,0,.24,1.13,1,1,0,0,0,.85.34h.37v1.32h-.47a3.56,3.56,0,0,1-1.31-.21,1.59,1.59,0,0,1-.85-.75,3.25,3.25,0,0,1-.31-1.58v-1.5a3,3,0,0,0-.14-1,.93.93,0,0,0-.44-.51,2.12,2.12,0,0,0-.85-.17v-1.51a2.09,2.09,0,0,0,.85-.17.86.86,0,0,0,.44-.51,3,3,0,0,0,.14-1v-1.49a2.74,2.74,0,0,1,.57-1.95,2.59,2.59,0,0,1,1.9-.59h.47v1.32h-.37a1.06,1.06,0,0,0-.82.3,1.82,1.82,0,0,0-.27,1.17Z" transform="translate(-20.48 -180.47)"/><path class="cls-3" d="M587,458.88h3.39v1.32h-1.93v10.33h1.93v1.32H587Z" transform="translate(-20.48 -180.47)"/><rect class="cls-1" x="590.78" y="254.92" width="34.02" height="39.69" rx="4.12"/><path class="cls-2" d="M622.59,445.77,618,443.93v-1.84l7.14,2.82v1.71L618,449.45V447.6Z" transform="translate(-20.48 -180.47)"/><path class="cls-2" d="M618.36,467.48a1.14,1.14,0,0,1-.34-.84,1.15,1.15,0,0,1,.34-.84,1.08,1.08,0,0,1,.81-.35,1.13,1.13,0,0,1,.83.35,1.16,1.16,0,0,1,.35.84,1.15,1.15,0,0,1-.35.84,1.13,1.13,0,0,1-.83.35A1.08,1.08,0,0,1,618.36,467.48Z" transform="translate(-20.48 -180.47)"/><path class="cls-3" d="M637,442.69a1.82,1.82,0,0,0-.27-1.17,1.06,1.06,0,0,0-.81-.3h-.36V439.9H636a2.58,2.58,0,0,1,1.89.59,2.74,2.74,0,0,1,.57,1.95v1.49a3.32,3.32,0,0,0,.13,1,.88.88,0,0,0,.45.51,2.09,2.09,0,0,0,.85.17v1.51a2.09,2.09,0,0,0-.85.17.93.93,0,0,0-.44.51,3,3,0,0,0-.14,1v1.5a3.25,3.25,0,0,1-.31,1.58,1.53,1.53,0,0,1-.84.75,3.56,3.56,0,0,1-1.31.21h-.46v-1.32h.36a1,1,0,0,0,.84-.34,2,2,0,0,0,.24-1.13v-1.41a3.17,3.17,0,0,1,.31-1.56.75.75,0,1,0,0-1.45,3.19,3.19,0,0,1-.31-1.56Z" transform="translate(-20.48 -180.47)"/><path class="cls-3" d="M635.55,460.2v-1.32h3.39v13h-3.39v-1.32h1.93V460.2Z" transform="translate(-20.48 -180.47)"/><rect class="cls-1" x="642.68" y="254.92" width="34.02" height="39.69" rx="4.12"/><path class="cls-2" d="M669,442.51a3.74,3.74,0,0,1,1.44-1.85,4,4,0,0,1,2.28-.65,4.21,4.21,0,0,1,1.67.32,2.76,2.76,0,0,1,1.18.9,2.27,2.27,0,0,1,.43,1.39,2.18,2.18,0,0,1-.22,1,2.61,2.61,0,0,1-.51.75,9.75,9.75,0,0,1-.82.73c-.31.26-.55.48-.73.65a2.2,2.2,0,0,0-.45.62,1.7,1.7,0,0,0-.18.79,1.81,1.81,0,0,0,0,.38h-1.58a3.15,3.15,0,0,1-.17-1,2,2,0,0,1,.36-1.21,6.07,6.07,0,0,1,1.05-1,6.9,6.9,0,0,0,.8-.75,1.06,1.06,0,0,0,.25-.71.88.88,0,0,0-.35-.73,1.45,1.45,0,0,0-.91-.26,2.1,2.1,0,0,0-2,1.56Zm2.63,8.14a1.14,1.14,0,0,1-.33-.82,1.17,1.17,0,0,1,.33-.84,1.08,1.08,0,0,1,.82-.35,1.06,1.06,0,0,1,.81.35,1.17,1.17,0,0,1,0,1.67,1.14,1.14,0,0,1-1.63,0Z" transform="translate(-20.48 -180.47)"/><path class="cls-2" d="M669.38,467.64l3.84-10.25h1.88l-3.84,10.25Z" transform="translate(-20.48 -180.47)"/><rect class="cls-1" x="707.05" y="123.84" width="34.02" height="39.69" rx="4.12"/><path class="cls-2" d="M733.75,321.31v-13h1.79v13Z" transform="translate(-20.48 -180.47)"/><path class="cls-2" d="M733.19,328.49h1.87l3.84,10.25H737Z" transform="translate(-20.48 -180.47)"/><rect class="cls-1" x="727.29" y="324.49" width="34.02" height="39.69" rx="4.12"/><path class="cls-2" d="M757.12,516.71a3.81,3.81,0,0,1,.58-2.09,1.85,1.85,0,0,1,1.65-.84,1.73,1.73,0,0,1,1,.25,3.31,3.31,0,0,1,.73.69,3.57,3.57,0,0,0,.41.4.53.53,0,0,0,.83-.19,2.76,2.76,0,0,0,.22-.94h1.65a3.72,3.72,0,0,1-.56,2.09,1.87,1.87,0,0,1-1.67.84,1.78,1.78,0,0,1-1-.25,3.86,3.86,0,0,1-.75-.69,3.26,3.26,0,0,0-.38-.41.56.56,0,0,0-.36-.12.49.49,0,0,0-.47.31,2.71,2.71,0,0,0-.22,1Z" transform="translate(-20.48 -180.47)"/><path class="cls-2" d="M757.26,532.89h2l1.26,2.32H759Z" transform="translate(-20.48 -180.47)"/><rect class="cls-1" x="610.11" y="324.49" width="34.02" height="39.69" rx="4.12"/><path class="cls-2" d="M639.28,520.53v-1.62H646v1.62Z" transform="translate(-20.48 -180.47)"/><path class="cls-2" d="M640.09,537.34v-1.63h5.25v1.63Z" transform="translate(-20.48 -180.47)"/><rect class="cls-1" x="670.97" y="324.49" width="34.02" height="39.69" rx="4.12"/><path class="cls-2" d="M703.48,513.52h1.73v2.72h2.7V518h-2.7v2.71h-1.73V518h-2.71v-1.71h2.71Z" transform="translate(-20.48 -180.47)"/><path class="cls-2" d="M707.91,534.91h-7.14v-1.7h7.14Zm0,3.24h-7.14v-1.71h7.14Z" transform="translate(-20.48 -180.47)"/><rect class="cls-1" x="644.67" y="189.38" width="34.02" height="39.69" rx="4.12"/><path class="cls-2" d="M674.77,379.89a1.14,1.14,0,0,1-.34-.84,1.17,1.17,0,0,1,.34-.84,1.15,1.15,0,0,1,1.65,0,1.18,1.18,0,0,1,.35.84,1.15,1.15,0,0,1-.35.84,1.15,1.15,0,0,1-1.65,0Zm0,5.23a1.17,1.17,0,0,1-.34-.84,1.14,1.14,0,0,1,.34-.84,1.08,1.08,0,0,1,.82-.35,1.12,1.12,0,0,1,.83.35,1.15,1.15,0,0,1,.35.84,1.18,1.18,0,0,1-.35.84,1.15,1.15,0,0,1-1.65,0Z" transform="translate(-20.48 -180.47)"/><path class="cls-2" d="M676.56,400.35a1.93,1.93,0,0,1,.38,1.29,3.18,3.18,0,0,1-.34,1.44,3,3,0,0,1-.92,1.09,3,3,0,0,1-1.29.56v-1a1.9,1.9,0,0,0,.94-.5,1.49,1.49,0,0,0,.42-.91h-.09a1.08,1.08,0,0,1-.81-.34,1.17,1.17,0,0,1-.32-.85,1.16,1.16,0,0,1,.31-.83,1,1,0,0,1,.79-.35A1.18,1.18,0,0,1,676.56,400.35Zm-1.67-3.66a1.17,1.17,0,0,1-.33-.84,1.2,1.2,0,0,1,.33-.84,1.11,1.11,0,0,1,.81-.35,1.15,1.15,0,0,1,.84.35,1.17,1.17,0,0,1,.34.84,1.14,1.14,0,0,1-.34.84,1.11,1.11,0,0,1-.84.35A1.08,1.08,0,0,1,674.89,396.69Z" transform="translate(-20.48 -180.47)"/><path class="cls-3" d="M690.47,377.5h1.61a6.31,6.31,0,0,1-.36,1.85,12.13,12.13,0,0,1-.79,1.95h-1.25a14.42,14.42,0,0,0,.54-1.93A9.38,9.38,0,0,0,690.47,377.5Zm3.09,0h1.61a6.37,6.37,0,0,1-.36,1.86,10.13,10.13,0,0,1-.8,1.94h-1.23a18.18,18.18,0,0,0,.54-1.93A10.07,10.07,0,0,0,693.56,377.5Z" transform="translate(-20.48 -180.47)"/><path class="cls-3" d="M690.19,394.3h1.61a6.31,6.31,0,0,1-.36,1.85,12.13,12.13,0,0,1-.79,2H689.4a14.42,14.42,0,0,0,.54-1.93A9.38,9.38,0,0,0,690.19,394.3Z" transform="translate(-20.48 -180.47)"/><rect class="cls-1" x="871.51" y="485.03" width="34.02" height="49.61" rx="4.12" transform="translate(1377.88 -559.16) rotate(90)"/><circle class="cls-3" cx="868.05" cy="329.36" r="7.46"/><rect class="cls-1" x="874.93" y="543.12" width="34.02" height="49.61" rx="4.12" transform="translate(303.53 1279.39) rotate(-90)"/><rect class="cls-1" x="941.79" y="485.03" width="34.02" height="49.61" rx="4.12" transform="translate(1448.15 -629.44) rotate(90)"/><circle class="cls-3" cx="938.32" cy="329.36" r="7.46"/><rect class="cls-1" x="228.6" y="326.47" width="34.02" height="39.69" rx="4.12"/><polygon class="cls-2" points="233.59 344.33 233.59 348.3 257.62 348.3 257.62 344.33 256.06 344.33 256.06 346.76 235.34 346.76 235.34 344.33 233.59 344.33"/><rect class="cls-1" x="550.18" y="326.47" width="34.02" height="39.69" rx="4.12"/><polygon class="cls-2" points="555.18 344.33 555.18 348.3 579.21 348.3 579.21 344.33 577.65 344.33 577.65 346.76 556.92 346.76 556.92 344.33 555.18 344.33"/><polygon class="cls-2" points="869.48 399.47 873.44 399.47 873.44 375.44 869.48 375.44 869.48 377 871.91 377 871.91 397.72 869.48 397.72 869.48 399.47"/><rect class="cls-1" x="934.82" y="543.12" width="34.02" height="49.61" rx="4.12" transform="translate(363.43 1339.29) rotate(-90)"/><polygon class="cls-2" points="933.34 375.44 929.37 375.44 929.37 399.47 933.34 399.47 933.34 397.91 930.91 397.91 930.91 377.19 933.34 377.19 933.34 375.44"/><path class="cls-3" d="M162,397.32l-2,2h7.2v1.14H160l2,2.07-.72.73L158,399.93l3.32-3.36Z" transform="translate(-20.48 -180.47)"/><path class="cls-3" d="M468.42,331H473V332h-3.31v2.8h3v1.08h-3v3.81h-1.24Z" transform="translate(-20.48 -180.47)"/><path class="cls-3" d="M474.26,333.87V332.5l2.23-1.56h1v8.79h-1.24v-7.22Z" transform="translate(-20.48 -180.47)"/><path class="cls-3" d="M480.06,333.87V332.5l2.24-1.56h1v8.79H482v-7.22Z" transform="translate(-20.48 -180.47)"/><path class="cls-3" d="M519.88,331.36h4.55v1.09h-3.31v2.8h3v1.08h-3v3.81h-1.24Z" transform="translate(-20.48 -180.47)"/><path class="cls-3" d="M525.72,334.27v-1.36l2.23-1.56h1v8.79h-1.24v-7.22Z" transform="translate(-20.48 -180.47)"/><path class="cls-3" d="M532.78,339.05H536v1.09H531.1v-.8l2.14-3.12a11.82,11.82,0,0,0,.94-1.53,2.51,2.51,0,0,0,.24-1.08,1.53,1.53,0,0,0-.27-1,.88.88,0,0,0-.73-.33c-.63,0-1.06.49-1.29,1.48l-1-.48a2.56,2.56,0,0,1,.84-1.56,2.27,2.27,0,0,1,1.53-.54,2.15,2.15,0,0,1,1.63.64,2.41,2.41,0,0,1,.59,1.7,3.3,3.3,0,0,1-.3,1.38,16.31,16.31,0,0,1-1.15,1.91Z" transform="translate(-20.48 -180.47)"/><path class="cls-3" d="M269.4,403.31l2-2h-7.2v-1.14h7.21l-2-2.07.72-.73,3.31,3.35-3.31,3.36Z" transform="translate(-20.48 -180.47)"/><path class="cls-3" d="M213.09,400.73l2,2v-7.2h1.14v7.21l2.06-2,.73.72-3.35,3.31-3.36-3.31Z" transform="translate(-20.48 -180.47)"/><path class="cls-3" d="M218.46,334.14l-2-2v7.2H215.3v-7.22l-2.07,2-.73-.72,3.35-3.31,3.36,3.31Z" transform="translate(-20.48 -180.47)"/><rect class="cls-1" x="126.53" y="58.37" width="34.02" height="39.69" rx="4.12"/><path class="cls-2" d="M154.47,255.88a1.11,1.11,0,0,1-.34-.82,1.14,1.14,0,0,1,.34-.84,1,1,0,0,1,.81-.35,1.12,1.12,0,0,1,.83.35,1.15,1.15,0,0,1,.35.84,1.12,1.12,0,0,1-.35.82,1.09,1.09,0,0,1-.83.35A1,1,0,0,1,154.47,255.88Zm.07-3.1-.28-7.35h2l-.28,7.35Z" transform="translate(-20.48 -180.47)"/><path class="cls-2" d="M152.7,266.45v-1.6l2.6-1.82h1.14V273.3H155v-8.43Z" transform="translate(-20.48 -180.47)"/><rect class="cls-1" x="178.16" y="58.37" width="34.02" height="39.69" rx="4.12"/><path class="cls-2" d="M210.69,245.94a4.68,4.68,0,0,1,1.8,2.12,8.39,8.39,0,0,1,.65,3.47,5.15,5.15,0,0,1-.58,2.68,1.89,1.89,0,0,1-1.73,1,2,2,0,0,1-1-.26,1.59,1.59,0,0,1-.68-.78,1.72,1.72,0,0,1-1.61,1,2,2,0,0,1-1.19-.41,2.66,2.66,0,0,1-.87-1.19,5.51,5.51,0,0,1,0-3.7,2.73,2.73,0,0,1,.87-1.21,2,2,0,0,1,1.19-.41A1.71,1.71,0,0,1,209,249c0-.15,0-.35.06-.61h1.33v4.07a2.34,2.34,0,0,0,.14,1,.43.43,0,0,0,.4.31c.49,0,.73-.72.73-2.15a5.83,5.83,0,0,0-1-3.69,3.25,3.25,0,0,0-2.7-1.23,3.73,3.73,0,0,0-2.09.6,3.91,3.91,0,0,0-1.42,1.73,6.47,6.47,0,0,0-.51,2.68,6.28,6.28,0,0,0,.51,2.64,4,4,0,0,0,1.39,1.71,3.56,3.56,0,0,0,2,.6,3.44,3.44,0,0,0,2.2-.76l.68,1.18a3.9,3.9,0,0,1-2.88,1,5.19,5.19,0,0,1-2.81-.76,5.07,5.07,0,0,1-1.93-2.2,8.75,8.75,0,0,1,0-6.86,5.24,5.24,0,0,1,2-2.23,5.37,5.37,0,0,1,2.86-.77A5,5,0,0,1,210.69,245.94ZM208.54,253a3.15,3.15,0,0,0,0-2.64.86.86,0,0,0-.73-.41.79.79,0,0,0-.71.45,2.63,2.63,0,0,0-.26,1.28,2.51,2.51,0,0,0,.27,1.28.78.78,0,0,0,.7.46A.87.87,0,0,0,208.54,253Z" transform="translate(-20.48 -180.47)"/><path class="cls-2" d="M205.8,272h3.69v1.28h-5.65v-.94l2.49-3.64a14.81,14.81,0,0,0,1.09-1.78,2.9,2.9,0,0,0,.28-1.26,1.77,1.77,0,0,0-.31-1.13,1,1,0,0,0-.85-.4c-.74,0-1.24.58-1.51,1.74l-1.18-.56a3.13,3.13,0,0,1,1-1.83,2.73,2.73,0,0,1,1.79-.62,2.48,2.48,0,0,1,1.9.74,2.82,2.82,0,0,1,.69,2,3.89,3.89,0,0,1-.35,1.61,19.13,19.13,0,0,1-1.34,2.23Z" transform="translate(-20.48 -180.47)"/><rect class="cls-1" x="229.79" y="58.37" width="34.02" height="39.69" rx="4.12"/><path class="cls-2" d="M261.79,247.72h1.08v1.71h-1.39l-.46,2.48h1.09v1.71h-1.4l-.46,2.49h-1.7l.45-2.49h-1.4l-.45,2.49h-1.7l.44-2.49H254.8v-1.71h1.42l.44-2.48h-1.09v-1.71H257l.46-2.5h1.69l-.45,2.5h1.4l.47-2.5h1.69Zm-3.42,1.71-.45,2.48h1.4l.45-2.48Z" transform="translate(-20.48 -180.47)"/><path class="cls-2" d="M260.62,268.83a3.43,3.43,0,0,1-.35,3.81,2.7,2.7,0,0,1-2.07.81,3,3,0,0,1-1.82-.55,2.64,2.64,0,0,1-1-1.65l1.15-.63a2,2,0,0,0,.62,1.16,1.56,1.56,0,0,0,1,.4,1.17,1.17,0,0,0,1-.48,2,2,0,0,0,.36-1.26,1.67,1.67,0,0,0-1.88-1.86h-.48v-1.23h.56a1.31,1.31,0,0,0,1.1-.49,2,2,0,0,0,.36-1.22,1.77,1.77,0,0,0-.3-1.08,1,1,0,0,0-.82-.41,1.22,1.22,0,0,0-.92.41,2.67,2.67,0,0,0-.54,1.16l-1.12-.6a3,3,0,0,1,1-1.67,2.63,2.63,0,0,1,1.73-.57,2.36,2.36,0,0,1,1.86.74,2.68,2.68,0,0,1,.66,1.86,3.12,3.12,0,0,1-.32,1.42,2.12,2.12,0,0,1-1,1A2.33,2.33,0,0,1,260.62,268.83Z" transform="translate(-20.48 -180.47)"/><rect class="cls-1" x="277.7" y="58.37" width="34.02" height="39.69" rx="4.12"/><path class="cls-2" d="M308.77,255.17a3.13,3.13,0,0,1-1.75,1v1.9h-1.59v-1.89a3.26,3.26,0,0,1-1.69-.86,3.86,3.86,0,0,1-1-1.8l1.48-.88a4.1,4.1,0,0,0,.53,1.11,1.49,1.49,0,0,0,.75.57v-2.64a7.25,7.25,0,0,1-1.3-.59,2.58,2.58,0,0,1-.89-.88,2.66,2.66,0,0,1-.36-1.45,3,3,0,0,1,.69-2.05,3,3,0,0,1,1.79-1v-1.78H307v1.79a3,3,0,0,1,1.56.8,2.94,2.94,0,0,1,.82,1.52l-1.45.86a2.08,2.08,0,0,0-1-1.32v2.66a8.58,8.58,0,0,1,1.31.61,2.47,2.47,0,0,1,.88.88,2.58,2.58,0,0,1,.35,1.42A2.87,2.87,0,0,1,308.77,255.17Zm-3.83-5.95a2.1,2.1,0,0,0,.56.48v-2.19a1.06,1.06,0,0,0-.56.4,1.19,1.19,0,0,0-.2.68A1,1,0,0,0,304.94,249.22Zm2,5.15a1,1,0,0,0,.75-1.05,1,1,0,0,0-.19-.65,1.91,1.91,0,0,0-.56-.47Z" transform="translate(-20.48 -180.47)"/><path class="cls-2" d="M308.22,267.09v2.68h1.33V271h-1.33v2.26h-1.38V271H303v-1l3.26-7h1.47l-3.09,6.72h2.2v-2.68Z" transform="translate(-20.48 -180.47)"/><rect class="cls-1" x="328.58" y="58.37" width="34.02" height="39.69" rx="4.12"/><path class="cls-2" d="M357.86,249.65a2,2,0,0,1-.82.88,2.41,2.41,0,0,1-2.29,0,2.09,2.09,0,0,1-.83-.88,3,3,0,0,1-.31-1.42,3,3,0,0,1,.31-1.43,2.15,2.15,0,0,1,.83-.88,2.48,2.48,0,0,1,2.29,0,2.06,2.06,0,0,1,.82.88,3,3,0,0,1,.31,1.43A3,3,0,0,1,357.86,249.65Zm-1.5-2.2a.56.56,0,0,0-.47-.26.55.55,0,0,0-.48.27,1.69,1.69,0,0,0,0,1.52.55.55,0,0,0,.48.27.56.56,0,0,0,.47-.26,1.25,1.25,0,0,0,.19-.76A1.28,1.28,0,0,0,356.36,247.45Zm-1.1,8.62,5.26-10.25h1.92l-5.26,10.25Zm8.2-.5a2.22,2.22,0,0,1-1.64.66,2.29,2.29,0,0,1-1.14-.28,2.08,2.08,0,0,1-.84-.87,3,3,0,0,1-.31-1.42,3,3,0,0,1,.31-1.43,2.1,2.1,0,0,1,.84-.88,2.26,2.26,0,0,1,1.14-.3,2.19,2.19,0,0,1,1.64.68,2.66,2.66,0,0,1,.65,1.93A2.63,2.63,0,0,1,363.46,255.57Zm-1.16-2.69a.56.56,0,0,0-.95,0,1.33,1.33,0,0,0-.18.76,1.37,1.37,0,0,0,.18.77.56.56,0,0,0,.95,0,1.37,1.37,0,0,0,.18-.77A1.33,1.33,0,0,0,362.3,252.88Z" transform="translate(-20.48 -180.47)"/><path class="cls-2" d="M358.57,267.19a2.53,2.53,0,0,1,.95,1.13,4.2,4.2,0,0,1,.34,1.73,4,4,0,0,1-.38,1.8,2.82,2.82,0,0,1-1,1.19,2.87,2.87,0,0,1-1.51.41,2.65,2.65,0,0,1-1.62-.51,2.78,2.78,0,0,1-1-1.52l1.15-.64a2.22,2.22,0,0,0,.58,1,1.26,1.26,0,0,0,.88.36,1.19,1.19,0,0,0,1.05-.58,3.1,3.1,0,0,0,0-3,1.2,1.2,0,0,0-1.08-.58,1.33,1.33,0,0,0-.82.28,2.06,2.06,0,0,0-.59.74l-1-.47.58-5.55h4.37v1.28h-3.18l-.31,2.8a2.21,2.21,0,0,1,1.19-.32A2.54,2.54,0,0,1,358.57,267.19Z" transform="translate(-20.48 -180.47)"/><rect class="cls-1" x="445.11" y="58.37" width="34.02" height="39.69" rx="4.12"/><path class="cls-2" d="M474.09,248.07l-1.34,3.4H471l2.25-5.65h1.64l2.26,5.65h-1.74Z" transform="translate(-20.48 -180.47)"/><path class="cls-2" d="M475.36,267.33a2.59,2.59,0,0,1,.94,1.14,4.23,4.23,0,0,1,.32,1.68,3.86,3.86,0,0,1-.37,1.75,2.8,2.8,0,0,1-1.05,1.15,3.16,3.16,0,0,1-3.08,0,2.6,2.6,0,0,1-1-1.16,4,4,0,0,1-.37-1.8,4.55,4.55,0,0,1,.13-1.13,5.87,5.87,0,0,1,.34-1c.14-.31.36-.74.65-1.31l1.9-3.6h1.51l-1.92,3.6-.22.43a2.19,2.19,0,0,1,.88-.17A2.32,2.32,0,0,1,475.36,267.33Zm-.63,4.3a2.39,2.39,0,0,0,.4-1.46,2.44,2.44,0,0,0-.39-1.45,1.33,1.33,0,0,0-2.15,0,2.93,2.93,0,0,0,0,2.92,1.23,1.23,0,0,0,1.07.54A1.26,1.26,0,0,0,474.73,271.63Z" transform="translate(-20.48 -180.47)"/><rect class="cls-1" x="496.74" y="58.37" width="34.02" height="39.69" rx="4.12"/><path class="cls-2" d="M529.69,256.07h-2.24l-.73-.93a3.84,3.84,0,0,1-2.77,1.09,3.1,3.1,0,0,1-2.21-.75,2.86,2.86,0,0,1-.79-2.14,3.15,3.15,0,0,1,.51-1.86,4.92,4.92,0,0,1,1.41-1.29,4.65,4.65,0,0,1-.65-1.17,3.09,3.09,0,0,1-.19-1.09,2.82,2.82,0,0,1,.36-1.46,2.38,2.38,0,0,1,1-.93,2.93,2.93,0,0,1,1.36-.31,2.64,2.64,0,0,1,1.3.32,2.23,2.23,0,0,1,.86.89,2.72,2.72,0,0,1,.3,1.28,2.42,2.42,0,0,1-.5,1.57,5.61,5.61,0,0,1-1.39,1.18l1.34,1.73a10.44,10.44,0,0,0,.49-2.21h1.8a10.74,10.74,0,0,1-1.1,3.71Zm-4.05-2.3-1.82-2.35a2.74,2.74,0,0,0-.71.78,2,2,0,0,0-.25,1,1.27,1.27,0,0,0,.34,1,1.35,1.35,0,0,0,.95.32A2,2,0,0,0,525.64,253.77Zm-1.7-5.24a3.55,3.55,0,0,0,.42.77,3.08,3.08,0,0,0,.76-.7,1.33,1.33,0,0,0,.26-.81,1,1,0,0,0-.21-.66.72.72,0,0,0-.55-.23.78.78,0,0,0-.57.23,1.08,1.08,0,0,0-.23.76A1.81,1.81,0,0,0,523.94,248.53Z" transform="translate(-20.48 -180.47)"/><path class="cls-2" d="M526.46,264.32H522.4V263h5.67v.87L525,273.28h-1.54Z" transform="translate(-20.48 -180.47)"/><rect class="cls-1" x="548.37" y="58.37" width="34.02" height="39.69" rx="4.12"/><path class="cls-2" d="M577,247.67l1.54-1.08.73,1.26-1.72.8,1.72.78-.73,1.26-1.56-1.09.19,1.87h-1.46l.17-1.86-1.53,1.08-.72-1.26,1.67-.78-1.67-.8.72-1.26,1.53,1.08-.17-1.87h1.46Z" transform="translate(-20.48 -180.47)"/><path class="cls-2" d="M574.23,268.81a2.69,2.69,0,0,1,1.1-1,2.31,2.31,0,0,1-.89-.89,2.6,2.6,0,0,1-.33-1.33,2.83,2.83,0,0,1,.34-1.36,2.36,2.36,0,0,1,1-1,3,3,0,0,1,1.47-.35,3,3,0,0,1,1.44.34,2.35,2.35,0,0,1,.94,1,2.91,2.91,0,0,1,.32,1.37,2.7,2.7,0,0,1-.32,1.33,2.32,2.32,0,0,1-.87.89,2.7,2.7,0,0,1,1.08,1,3.09,3.09,0,0,1,.4,1.62,3.26,3.26,0,0,1-.37,1.58,2.61,2.61,0,0,1-1,1.06,3.2,3.2,0,0,1-1.57.38,3.28,3.28,0,0,1-1.61-.38,2.64,2.64,0,0,1-1.07-1.05,3.28,3.28,0,0,1-.38-1.59A3.19,3.19,0,0,1,574.23,268.81Zm1.53,2.89a1.38,1.38,0,0,0,1.13.5,1.36,1.36,0,0,0,1.09-.51,2.05,2.05,0,0,0,.43-1.38,2.12,2.12,0,0,0-.42-1.38,1.34,1.34,0,0,0-1.1-.52,1.39,1.39,0,0,0-1.13.51,2.46,2.46,0,0,0,0,2.78Zm.18-4.95a1.25,1.25,0,0,0,1.89,0,1.64,1.64,0,0,0,.36-1.1,1.71,1.71,0,0,0-.36-1.12,1.25,1.25,0,0,0-1.89,0,1.67,1.67,0,0,0-.36,1.12A1.64,1.64,0,0,0,575.94,266.75Z" transform="translate(-20.48 -180.47)"/><rect class="cls-1" x="596.28" y="58.37" width="34.02" height="39.69" rx="4.12"/><path class="cls-2" d="M622.49,247.48a8.23,8.23,0,0,1,1.68-2.82h1.92a10.73,10.73,0,0,0-1.63,2.92,10.41,10.41,0,0,0,1.63,10h-1.92a8.28,8.28,0,0,1-1.68-2.83,11.26,11.26,0,0,1,0-7.31Z" transform="translate(-20.48 -180.47)"/><path class="cls-2" d="M626.25,263.27a2.71,2.71,0,0,1,1,1.16,4,4,0,0,1,.37,1.8,4.48,4.48,0,0,1-.25,1.56,16,16,0,0,1-.87,1.88l-1.9,3.6h-1.51l1.92-3.6.22-.43a2.19,2.19,0,0,1-.88.16A2.31,2.31,0,0,1,623,269a2.62,2.62,0,0,1-.94-1.15,4.18,4.18,0,0,1-.32-1.67,3.9,3.9,0,0,1,.37-1.76,2.73,2.73,0,0,1,1.06-1.14,3.15,3.15,0,0,1,3.07,0Zm-2.62,4.34a1.34,1.34,0,0,0,2.16,0,2.95,2.95,0,0,0,0-2.93,1.26,1.26,0,0,0-1.08-.54,1.24,1.24,0,0,0-1.07.55,2.37,2.37,0,0,0-.4,1.45A2.51,2.51,0,0,0,623.63,267.61Z" transform="translate(-20.48 -180.47)"/><rect class="cls-1" x="647.16" y="58.37" width="34.02" height="39.69" rx="4.12"/><path class="cls-2" d="M675.54,254.79a8.3,8.3,0,0,1-1.69,2.83h-1.92a10.25,10.25,0,0,0,1.63-2.91,10.42,10.42,0,0,0-1.63-10.05h1.92a8.25,8.25,0,0,1,1.69,2.82,11.26,11.26,0,0,1,0,7.31Z" transform="translate(-20.48 -180.47)"/><path class="cls-2" d="M677.79,272.22a2.47,2.47,0,0,1-4.28,0,11.31,11.31,0,0,1,0-8.1,2.47,2.47,0,0,1,4.28,0,11.66,11.66,0,0,1,0,8.12Zm-3.18-1c.22.62.56.93,1,.93s.82-.31,1-.92a14.49,14.49,0,0,0,0-6.15c-.21-.62-.55-.94-1-.94s-.82.32-1,.94a10.22,10.22,0,0,0-.33,3.08A10.06,10.06,0,0,0,674.61,271.23Z" transform="translate(-20.48 -180.47)"/><rect class="cls-1" x="118.06" y="326.47" width="34.02" height="39.69" rx="4.12"/><rect class="cls-1" x="333.05" y="324.54" width="34.02" height="39.69" rx="4.12"/><circle class="cls-3" cx="350.06" cy="344.38" r="7.46"/><rect class="cls-1" x="441.24" y="324.54" width="34.02" height="39.69" rx="4.12"/><circle class="cls-3" cx="458.25" cy="344.38" r="7.46"/><rect class="cls-1" x="299.73" y="507" width="34.02" height="39.69" rx="4.12" transform="translate(613.01 873.21) rotate(-180)"/><polygon class="cls-2" points="308.28 348.35 308.28 344.38 284.25 344.38 284.25 348.35 285.81 348.35 285.81 345.92 306.54 345.92 306.54 348.35 308.28 348.35"/><rect class="cls-1" x="509.49" y="507" width="34.02" height="39.69" rx="4.12" transform="translate(1032.51 873.21) rotate(-180)"/><polygon class="cls-2" points="518.03 348.35 518.03 344.38 494 344.38 494 348.35 495.56 348.35 495.56 345.92 516.29 345.92 516.29 348.35 518.03 348.35"/><rect class="cls-1" x="172.83" y="326.47" width="34.02" height="39.69" rx="4.12"/><path class="cls-4" d="M207.61,525.1l-1.25-1.93a1.17,1.17,0,0,0-1.13-.6h-1.85a1.07,1.07,0,0,1-1.1-.94,1,1,0,0,1,.82-1.21,7.57,7.57,0,0,1,3.57.18,3.08,3.08,0,0,1,1.53,1.3c1.77,2.72,3.55,5.42,5.29,8.16a1.7,1.7,0,0,0,1.76,1,18.12,18.12,0,0,1,1.95,0,1.08,1.08,0,0,1,1.16,1,1.05,1.05,0,0,1-1,1.23,17.56,17.56,0,0,1-3.16,0,3.23,3.23,0,0,1-2.38-1.62C210.44,529.42,209,527.28,207.61,525.1Z" transform="translate(-20.48 -180.47)"/><path class="cls-4" d="M212.26,522.83a1.09,1.09,0,0,1-.27-1.31,1.13,1.13,0,0,1,1.11-.64h4.07a1.12,1.12,0,1,1,0,2.23h-4A1.22,1.22,0,0,1,212.26,522.83Z" transform="translate(-20.48 -180.47)"/><path class="cls-5" d="M667.23,508.62" transform="translate(-20.48 -180.47)"/><path class="cls-4" d="M666.78,507.77" transform="translate(-20.48 -180.47)"/><rect class="cls-1" x="63.28" y="328.47" width="34.02" height="39.69" rx="4.12"/><path class="cls-6" d="M104.87,528.46l4.55,6.48c0,.06-.08,0-.12,0h-2.74a.19.19,0,0,1-.16-.08l-3.26-4.65L100.85,527l-.09-.12-.28.38c-.78,1.12-1.57,2.23-2.35,3.34s-1.56,2.23-2.35,3.34c-.22.31-.44.62-.65.94A.21.21,0,0,1,95,535H92.26a.2.2,0,0,1-.16,0l8.66-12.38.29.41,2.13,3C103.74,526.83,104.31,527.64,104.87,528.46Z" transform="translate(-20.48 -180.47)"/><rect class="cls-1" x="62.88" y="250.76" width="34.02" height="39.69" rx="4.12"/><path class="cls-7" d="M104.81,459.43H95v-6.16H89.67l10.72-10.55,10.66,10.54h-5.34v6.17h-.9m-.93-5.8v-2.15h2.9l-6.41-6.29L94,451.49h2.81v5.91h7Z" transform="translate(-20.48 -180.47)"/><rect class="cls-1" x="710.21" y="250.76" width="34.02" height="39.69" rx="4.12"/><path class="cls-7" d="M752.15,459.43h-9.78v-6.16H737l10.71-10.55,10.67,10.54H753v6.17h-.89m-.93-5.8v-2.15h2.89l-6.4-6.29-6.35,6.3h2.82v5.91h7Z" transform="translate(-20.48 -180.47)"/><rect class="cls-1" x="56.54" y="184.98" width="34.02" height="39.69" rx="4.12"/><path class="cls-8" d="M98.48,390.22H88.7v-6.17H83.34L94.05,373.5,104.71,384H99.37v6.18h-.89m-.94-5.81v-2.14h2.9L94,376l-6.35,6.3h2.82v5.92h7Z" transform="translate(-20.48 -180.47)"/><rect class="cls-8" x="68.22" y="212.36" width="10.67" height="4.26"/><rect class="cls-1" x="69.36" y="213.44" width="8.38" height="1.95"/><rect class="cls-1" x="56.58" y="119.44" width="34.02" height="39.69" rx="4.12"/><path class="cls-9" d="M92,323.84l.41-.41.08-.09.23-.23.08-.09.24-.22.07-.09.24-.22.08-.09.12-.11.07-.09s0,0,0,0l.15-.16s0,0,0,0l.11-.11.08-.07.07-.09.16-.14a.2.2,0,0,0,0-.08H85.87l-.24-.06,0,0-.11-.05-.1-.09-.09-.08-.17-.34,0-.08v-.08a1.7,1.7,0,0,0,0-.24,1,1,0,0,1,0-.11l.1-.28,0,0,.06-.1a1,1,0,0,1,.88-.34h8.12l-.15-.17-2-2a1,1,0,1,1,1.32-1.4c.71.7,1.42,1.42,2.13,2.13l1.74,1.73a1,1,0,0,1,0,1.36L93.48,325a2.94,2.94,0,0,1-.55.32H92.6l-.49-.25-.09-.07,0-.08c-.06-.13-.11-.23-.17-.34v-.08c0-.12,0-.2,0-.28a.31.31,0,0,0,0-.07,1.85,1.85,0,0,0,.06-.2l0-.06A.31.31,0,0,0,92,323.84Z" transform="translate(-20.48 -180.47)"/><path class="cls-9" d="M101.06,328.07a1,1,0,0,1-1.39-.19,1,1,0,0,1-.16-.63c0-1.17,0-2.34,0-3.51v-9.89a1,1,0,0,1,1.93-.13v13.44c0,.08,0,.17,0,.28a.41.41,0,0,1,0,.09c0,.1-.09.2-.15.32a1.47,1.47,0,0,1-.1.13A.76.76,0,0,0,101.06,328.07Z" transform="translate(-20.48 -180.47)"/><rect class="cls-1" x="56.56" y="57.67" width="34.02" height="39.69" rx="4.12"/><path class="cls-10" d="M91.68,265a7.47,7.47,0,0,1-5.05-7.16h1.59c0,.18,0,.37,0,.55a5.64,5.64,0,0,0,2.14,4.06,6,6,0,0,0,2.81,1.29,5.53,5.53,0,0,0,3.51-.52,5.67,5.67,0,0,0,2.6-2.59,5.52,5.52,0,0,0,.57-3.2,6,6,0,0,0-3.37-4.71,5.49,5.49,0,0,0-2.64-.62h-.1v-1.59c.21,0,.41,0,.61,0a7.49,7.49,0,0,1,5.84,3.34,7,7,0,0,1,1.09,2.55,7.11,7.11,0,0,1,.15,2.3,7.18,7.18,0,0,1-1.55,3.9A7.33,7.33,0,0,1,96.63,265a7.18,7.18,0,0,1-4.95,0Z" transform="translate(-20.48 -180.47)"/><path class="cls-10" d="M90.29,255.53l-.1-.1-1.83,1.86-.86-5.61,5.56.79-1.8,1.85,6.16,6.19-1.11,1.08-6-6.06m-1-.81,1.45-1.5L88.77,253l.3,1.89Z" transform="translate(-20.48 -180.47)"/><rect class="cls-1" x="703.88" y="58.45" width="34.02" height="39.69" rx="4.12"/><path class="cls-2" d="M749.76,246a.5.5,0,0,1,0,.12v11.38H738.37a.27.27,0,0,1-.15,0l-3.49-3.25-2.59-2.4s0,0,0,0l.36-.34,2.16-2,1.73-1.63c.62-.59,1.23-1.17,1.86-1.75h11.56m-8.19,6.91.8-1.11a.08.08,0,0,0,0-.11l-.63-.86-1.28-1.73-1-1.38a.15.15,0,0,0-.09,0,3.08,3.08,0,0,0-.43,0,.15.15,0,0,0-.11,0c-.45.43-.9.85-1.35,1.29l-2.41,2.31c-.15.14-.28.3-.42.45l0,0,1.12,1c1.06,1,2.11,2,3.16,2.93a.16.16,0,0,0,.1,0h.37l.1,0c.06-.08.11-.17.17-.26.63-.86,1.25-1.73,1.88-2.6m3.57-.27c.24.34.48.67.71,1,.5.7,1,1.42,1.48,2.12a.14.14,0,0,0,.1,0h.67v-8.13h-.76a.13.13,0,0,0-.07,0l-.18.25-1.39,2c-.4.56-.78,1.12-1.18,1.69a.09.09,0,0,0,0,.11c.21.28.41.57.62.86m-3.52,3.18h3.65l-1.83-2.62-.06.08-.25.36-1.19,1.65-.35.48s-.05,0,0,0m1.28-6.28.51.7,1.77-2.56h-3.63Z" transform="translate(-20.48 -180.47)"/><path class="cls-3" d="M731.73,264.93a2.79,2.79,0,0,1,1.49.4,2.62,2.62,0,0,1,1,1.17,5.35,5.35,0,0,1,0,3.7,2.51,2.51,0,0,1-2.46,1.58H730v-6.85Zm-.16,6a1.67,1.67,0,0,0,1.45-.66,3.29,3.29,0,0,0,.48-1.93,3.24,3.24,0,0,0-.48-1.92,1.7,1.7,0,0,0-1.45-.66h-.64v5.17Z" transform="translate(-20.48 -180.47)"/><path class="cls-3" d="M738.59,267.41a2.49,2.49,0,0,1,.46,1.59,5.17,5.17,0,0,1,0,.57h-2.73a2,2,0,0,0,.33,1.13.91.91,0,0,0,.75.36.86.86,0,0,0,.84-.62l.7.4a1.43,1.43,0,0,1-.6.79,1.93,1.93,0,0,1-1,.26,1.77,1.77,0,0,1-1.43-.64,2.81,2.81,0,0,1-.54-1.88,3.55,3.55,0,0,1,.26-1.43,1.89,1.89,0,0,1,.71-.85,1.84,1.84,0,0,1,1-.28A1.57,1.57,0,0,1,738.59,267.41Zm-2,.51a1.71,1.71,0,0,0-.32.92h1.82a1.52,1.52,0,0,0-.25-.91.71.71,0,0,0-.61-.31A.83.83,0,0,0,736.64,267.92Z" transform="translate(-20.48 -180.47)"/><path class="cls-3" d="M740.8,271.78h-.92v-7.12h.92Z" transform="translate(-20.48 -180.47)"/><path class="cls-3" d="M745,267.41a2.49,2.49,0,0,1,.47,1.59,3.48,3.48,0,0,1,0,.57h-2.72a2,2,0,0,0,.32,1.13.91.91,0,0,0,.75.36.88.88,0,0,0,.85-.62l.69.4a1.35,1.35,0,0,1-.6.79,1.92,1.92,0,0,1-1,.26,1.79,1.79,0,0,1-1.44-.64,2.81,2.81,0,0,1-.54-1.88,3.55,3.55,0,0,1,.26-1.43,1.81,1.81,0,0,1,1.7-1.13A1.54,1.54,0,0,1,745,267.41Zm-1.94.51a1.63,1.63,0,0,0-.32.92h1.81a1.6,1.6,0,0,0-.24-.91.73.73,0,0,0-.62-.31A.8.8,0,0,0,743,267.92Z" transform="translate(-20.48 -180.47)"/><path class="cls-3" d="M748.84,271.54a1.42,1.42,0,0,1-1,.35,1.37,1.37,0,0,1-1-.38,1.79,1.79,0,0,1-.39-1.32v-2.48h-.69v-.79h.69v-1.39h.92v1.39h1.19v.79h-1.19V270a1.44,1.44,0,0,0,.15.77.49.49,0,0,0,.43.23.73.73,0,0,0,.52-.21Z" transform="translate(-20.48 -180.47)"/><path class="cls-3" d="M752.4,267.41a2.49,2.49,0,0,1,.47,1.59,3.48,3.48,0,0,1,0,.57h-2.72a2,2,0,0,0,.32,1.13.91.91,0,0,0,.75.36.87.87,0,0,0,.85-.62l.69.4a1.35,1.35,0,0,1-.6.79,1.92,1.92,0,0,1-1,.26,1.77,1.77,0,0,1-1.43-.64,2.76,2.76,0,0,1-.55-1.88,3.38,3.38,0,0,1,.27-1.43,1.88,1.88,0,0,1,.7-.85,1.9,1.9,0,0,1,1-.28A1.54,1.54,0,0,1,752.4,267.41Zm-1.94.51a1.63,1.63,0,0,0-.32.92H752a1.45,1.45,0,0,0-.24-.91.73.73,0,0,0-.62-.31A.8.8,0,0,0,750.46,267.92Z" transform="translate(-20.48 -180.47)"/><rect class="cls-1" x="709.63" y="189.38" width="34.02" height="39.69" rx="4.12"/><path class="cls-8" d="M742.23,389.81l2.5-2.51c.09-.09.09-.09.18,0l1,1c.1.09.1.09,0,.18l-2.49,2.48-.43.43s0,0,0,.07.1,0,.15,0h7.62a1.73,1.73,0,0,0,1.63-1.25,2.06,2.06,0,0,0,.08-.6v-7.44c0-.22,0-.2.19-.2h1.44c.09,0,.12,0,.12.12,0,2.59,0,5.19,0,7.79a3.17,3.17,0,0,1-.75,2,3.47,3.47,0,0,1-2,1.26,3.7,3.7,0,0,1-.66.07h-7.61s-.11,0-.14,0,0,.09.08.12l2.82,2.79,0,.05c.07.05.06.09,0,.14l-.88.88c-.2.19-.2.19-.39,0l-3.17-3.13L740.29,393a.85.85,0,0,1,0-1.21Z" transform="translate(-20.48 -180.47)"/><rect class="cls-11" x="149.94" y="521.19" width="11.2" height="11.2" transform="translate(-347.41 83.8) rotate(-45)"/></svg>